<?xml version="1.0" standalone="no"?>
<!DOCTYPE svg PUBLIC "-//W3C//DTD SVG 20010904//EN"
 "http://www.w3.org/TR/2001/REC-SVG-20010904/DTD/svg10.dtd">
<svg version="1.0" xmlns="http://www.w3.org/2000/svg"
 width="1254.000000pt" height="1254.000000pt" viewBox="0 0 1254.000000 1254.000000"
 preserveAspectRatio="xMidYMid meet">
<metadata>
Created by potrace 1.16, written by Peter Selinger 2001-2019
</metadata>
<g transform="translate(0.000000,1254.000000) scale(0.100000,-0.100000)"
fill="#9C6A19" stroke="none">
<path d="M6055 10785 c-983 -89 -1852 -466 -2479 -1075 -223 -217 -529 -611
-498 -642 7 -7 18 7 32 38 11 27 33 65 48 84 15 19 36 48 46 63 9 16 20 26 23
23 4 -3 15 1 25 11 28 25 22 8 -10 -29 -24 -28 -58 -98 -48 -98 2 0 29 33 60
74 77 100 379 394 512 497 131 102 145 113 124 103 -23 -11 -129 -84 -178
-121 -24 -18 -48 -33 -54 -33 -25 0 456 332 602 415 88 50 285 150 355 180
371 158 693 253 1085 319 104 18 290 36 472 47 570 33 1194 -60 1718 -257 841
-316 1535 -851 2071 -1595 62 -87 172 -262 158 -254 -6 4 -19 21 -30 39 -10
17 -19 27 -19 23 0 -13 41 -90 58 -110 8 -9 12 -20 8 -25 -4 -4 -150 -8 -323
-9 -174 -2 -317 -4 -318 -5 -1 -2 -11 -39 -23 -83 -19 -73 -33 -121 -109 -360
-13 -44 -40 -129 -58 -190 -18 -60 -57 -189 -88 -285 -30 -96 -74 -238 -96
-315 -23 -77 -46 -151 -51 -165 -11 -31 -51 -165 -126 -415 -30 -104 -62 -205
-69 -225 -7 -19 -21 -63 -30 -97 -10 -35 -22 -63 -28 -63 -5 0 -7 -7 -3 -15 3
-8 1 -15 -4 -15 -5 0 -7 -7 -4 -15 4 -8 1 -22 -6 -30 -6 -7 -14 -29 -17 -47
-3 -18 -9 -38 -14 -44 -5 -6 -18 -41 -30 -78 -11 -38 -24 -65 -29 -60 -4 5
-25 64 -46 131 -20 67 -40 120 -44 118 -10 -6 -31 70 -24 88 3 8 1 18 -5 22
-7 4 -9 -1 -5 -12 5 -16 5 -17 -5 -1 -6 9 -12 35 -14 56 -1 22 -5 38 -8 36 -4
-2 -10 13 -14 34 -9 54 -45 172 -62 206 -8 15 -16 38 -17 50 -2 11 -6 28 -10
36 -3 8 -36 107 -72 220 -103 323 -202 633 -251 785 -25 77 -65 205 -90 284
-24 79 -62 191 -84 250 -22 58 -44 120 -48 136 -6 23 -10 26 -15 14 -9 -21 4
-71 56 -219 103 -294 505 -1535 592 -1825 20 -66 53 -174 74 -240 33 -100 68
-237 88 -343 9 -44 29 -15 41 59 17 110 123 499 143 524 4 6 13 35 20 65 13
59 35 133 81 270 15 47 32 101 37 120 15 55 129 431 172 570 144 460 239 767
279 905 12 39 23 88 24 110 2 22 8 40 13 40 5 -1 45 -4 89 -8 194 -18 217 -18
210 -8 -4 7 13 11 52 10 46 -1 53 -3 33 -10 -19 -6 -16 -7 15 -3 22 2 90 5
150 5 122 1 165 6 165 20 0 5 -11 9 -24 9 -14 0 -28 5 -32 12 -5 8 0 9 15 5
22 -5 21 -5 -5 41 -67 117 -243 369 -363 522 -188 240 -492 545 -722 725 -664
520 -1431 831 -2274 921 -194 21 -644 24 -815 6 -613 -66 -1165 -226 -1625
-471 -192 -102 -229 -121 -240 -121 -7 0 -40 -18 -74 -40 -34 -22 -65 -40 -69
-40 -4 0 -20 -11 -36 -25 -39 -33 -24 -32 41 5 68 39 69 32 1 -11 -29 -19 -93
-64 -141 -102 -49 -38 -91 -66 -95 -63 -3 3 -1 6 5 6 6 0 19 12 28 28 l18 27
-31 -29 c-17 -16 -29 -32 -27 -36 2 -4 -10 -17 -28 -30 -30 -22 -31 -22 -13
-2 11 12 14 22 8 22 -17 0 -203 -181 -196 -191 7 -13 -96 -120 -109 -112 -5 3
-7 1 -4 -4 8 -13 -17 -36 -27 -25 -4 4 -6 2 -4 -3 4 -13 -95 -128 -128 -150
-43 -28 172 229 295 352 171 172 249 234 541 429 505 339 1136 567 1785 645
243 30 718 37 948 15 1066 -103 2018 -545 2768 -1287 551 -545 952 -1227 1153
-1959 78 -282 121 -551 137 -840 6 -111 8 -204 6 -206 -3 -3 -13 28 -22 68
-10 40 -23 84 -30 98 -26 52 -44 120 -64 245 -21 130 -42 240 -63 325 -42 175
-146 497 -204 630 -20 47 -52 123 -71 169 -18 46 -65 149 -103 229 -39 80 -70
153 -70 163 0 22 1 22 -73 4 -156 -37 -209 -137 -205 -391 l1 -109 7 105 c8
115 24 201 47 240 8 14 12 17 9 7 -25 -80 -27 -216 -24 -1632 3 -1192 6 -1498
16 -1528 17 -50 9 -58 -15 -15 -17 31 -18 94 -23 1155 -3 617 -9 1125 -13
1129 -4 4 -7 -35 -7 -87 0 -121 -11 -288 -19 -287 -15 3 -41 -15 -41 -28 0 -8
-4 -14 -9 -14 -14 0 -161 -153 -161 -167 0 -13 -57 -73 -69 -73 -4 0 -13 -10
-19 -22 -6 -13 -11 -17 -11 -10 -2 22 -21 13 -22 -10 0 -22 -1 -22 -11 2 -13
30 -16 23 -27 -85 -6 -62 -9 -15 -10 205 -1 157 -6 294 -11 305 -5 11 -9 -386
-9 -920 -1 -557 -5 -969 -11 -1010 -14 -97 -46 -178 -89 -224 -44 -48 -125
-71 -274 -79 -93 -4 -98 -6 -95 -26 4 -30 47 -35 325 -36 159 0 244 -4 248
-11 4 -6 13 -8 21 -5 10 4 14 -2 14 -18 0 -30 10 -57 19 -52 3 2 6 -12 6 -32
1 -25 23 -80 67 -168 78 -155 101 -240 100 -374 -1 -217 -82 -389 -315 -669
-82 -98 -238 -263 -244 -257 -2 2 23 39 55 82 33 44 83 117 111 164 28 47 66
105 84 130 65 89 100 156 134 255 31 87 35 111 34 191 -2 153 -28 247 -100
352 -43 63 -84 103 -250 240 -126 104 -129 103 -75 -29 23 -57 24 -68 22 -257
-3 -185 -2 -201 21 -265 13 -38 29 -71 37 -74 8 -3 11 -9 9 -14 -3 -5 5 -32
19 -61 52 -112 57 -272 11 -403 -28 -78 -26 -95 4 -38 33 62 24 29 -12 -45
-29 -60 -121 -211 -179 -295 -51 -74 27 -21 127 85 33 35 89 96 124 136 34 39
66 70 71 67 4 -2 15 4 25 15 13 14 14 20 5 20 -9 0 -5 9 10 25 12 13 27 22 31
19 5 -3 7 1 4 8 -5 13 14 39 81 110 19 20 45 55 57 77 13 23 26 39 29 36 11
-12 111 139 127 193 19 63 19 61 89 182 120 204 168 405 143 599 -6 47 -9 87
-6 89 2 3 27 7 54 10 l49 4 5 -43 c3 -24 10 -78 17 -119 18 -111 -4 -202 -79
-328 -16 -26 -65 -109 -110 -185 -46 -76 -100 -163 -122 -194 -21 -31 -39 -61
-39 -66 0 -21 36 23 111 137 44 65 79 115 79 110 0 -5 29 34 64 86 41 61 60
99 55 106 -6 7 -4 16 5 23 7 6 35 46 60 89 26 42 67 111 93 152 44 71 115 200
208 375 45 85 105 247 105 284 0 13 7 29 15 37 8 9 15 24 15 34 0 9 11 47 25
83 31 83 55 188 54 235 -1 26 -5 16 -14 -38 -18 -99 -35 -159 -48 -167 -6 -4
-8 0 -4 11 20 52 39 217 35 298 -6 98 -4 102 16 37 l14 -44 1 67 c1 39 6 70
13 74 8 5 10 -9 5 -52 -4 -37 -3 -52 3 -39 15 35 12 196 -4 209 -12 9 -13 30
-7 116 5 70 9 87 10 50 3 -98 18 -90 26 13 4 52 4 100 1 106 -4 6 -9 32 -10
58 -8 113 -110 394 -186 514 -34 52 -36 61 -15 53 11 -5 15 1 15 21 0 15 -4
24 -10 20 -5 -3 -10 -1 -10 6 0 8 -4 9 -13 1 -16 -13 -87 -9 -96 6 -3 5 -15
12 -26 14 -17 3 -20 -2 -19 -36 2 -54 39 -86 99 -86 41 0 45 -2 74 -50 17 -28
31 -52 31 -55 0 -2 11 -28 24 -57 53 -117 68 -222 75 -538 4 -146 6 -266 5
-268 -1 -2 -11 32 -23 75 -11 43 -19 65 -16 48 3 -16 7 -59 10 -95 l5 -65 -15
73 c-26 135 -84 281 -148 376 -27 39 -35 62 -17 51 13 -8 24 39 16 70 -8 33
-42 62 -79 71 -26 5 -35 2 -59 -25 -61 -68 -19 -171 70 -171 46 0 58 -11 102
-100 76 -150 113 -331 111 -529 -1 -63 -3 -116 -6 -119 -2 -2 -9 11 -14 29 -9
29 -10 24 -8 -38 1 -40 0 -73 -3 -73 -3 0 -13 49 -22 109 -28 182 -84 319
-181 445 -36 47 -43 72 -13 47 12 -10 13 -6 5 31 -5 24 -14 53 -21 65 -15 29
-67 47 -100 34 -24 -9 -46 -41 -29 -41 5 0 17 -3 25 -6 12 -5 15 -2 10 10 -11
30 62 21 82 -10 15 -22 15 -27 3 -35 -18 -11 -77 -1 -108 18 -35 22 -47 4 -32
-46 15 -51 43 -71 102 -71 41 0 49 -4 75 -37 102 -130 152 -280 161 -490 10
-239 -56 -440 -273 -831 -50 -90 -67 -103 -34 -28 11 27 18 51 15 56 -3 4 2
37 12 72 9 36 16 104 17 158 0 92 1 93 10 41 6 -38 6 -77 -3 -128 -7 -41 -10
-77 -8 -80 12 -12 40 150 40 232 -1 50 4 115 11 145 13 64 9 253 -5 245 -5 -4
-9 -24 -9 -46 0 -47 -15 -51 -25 -6 -4 17 -9 35 -10 40 -1 4 -4 15 -5 25 -1
12 -4 10 -9 -8 -6 -22 -10 -19 -43 40 -19 36 -50 97 -69 135 -18 39 -42 83
-53 99 -11 17 -27 44 -36 60 -9 17 -21 40 -27 51 -6 11 -14 29 -18 39 -3 12
-9 16 -15 10 -5 -5 0 -39 12 -84 18 -65 19 -85 11 -150 -7 -57 -6 -92 4 -144
15 -70 87 -236 103 -236 16 0 21 19 6 27 -17 10 -82 198 -92 268 l-7 50 22
-25 c19 -20 21 -21 15 -5 -4 11 -9 43 -10 70 l-3 50 9 -44 c8 -36 49 -115 57
-108 9 10 -53 167 -67 167 -5 0 -10 8 -10 17 0 62 152 -249 181 -370 16 -67
27 -161 12 -104 -2 9 -8 15 -13 12 -5 -3 -27 16 -50 42 l-42 48 41 -66 c48
-78 52 -93 12 -55 -37 36 -57 27 -35 -16 13 -25 18 -28 26 -17 8 11 9 11 5 -2
-3 -9 5 -34 17 -56 66 -115 60 -290 -16 -501 -29 -80 -47 -108 -29 -45 12 43
-13 252 -32 265 -7 4 -6 12 2 22 15 18 5 40 -14 32 -21 -7 -124 20 -144 38
-18 17 -19 16 -5 -26 23 -72 38 -237 26 -288 -9 -41 -10 -36 -12 60 -2 144
-14 167 -29 60 -7 -47 -15 -100 -18 -118 -12 -76 -18 -28 -18 151 0 189 -1
193 -27 248 -15 30 -40 66 -54 80 l-27 24 26 -45 c44 -76 59 -164 47 -272 -12
-102 -16 -114 -25 -72 -4 16 -13 49 -21 73 -8 25 -14 52 -14 61 0 9 -6 25 -14
35 -13 18 -14 18 -10 -10 4 -22 -3 -14 -25 30 -34 70 -40 59 -11 -23 19 -53
50 -221 50 -267 -1 -14 -6 -10 -19 16 -25 50 -103 160 -109 154 -3 -2 6 -19
20 -37 68 -91 110 -212 107 -308 -1 -23 -7 -5 -18 51 -12 64 -26 102 -55 148
-47 76 -60 74 -16 -3 44 -78 24 -70 -25 9 -22 36 -44 65 -48 65 -5 0 -7 -3 -5
-7 2 -5 32 -64 66 -132 34 -68 62 -131 62 -140 0 -9 -9 3 -20 26 -22 50 -29
54 -23 16 5 -30 -35 32 -98 151 -30 58 -54 156 -38 156 5 0 9 -3 9 -7 1 -18
38 -55 48 -49 8 4 0 28 -23 70 -19 34 -36 74 -37 87 0 13 -4 4 -8 -21 l-6 -45
-14 30 c-23 49 -17 177 13 275 14 47 29 122 33 168 6 80 24 115 24 49 0 -35
39 -161 47 -153 3 3 0 27 -5 53 -6 26 -14 67 -17 90 -4 23 -12 46 -18 52 -7 6
-11 28 -9 55 4 51 22 64 22 16 0 -86 66 -211 172 -325 36 -38 80 -97 97 -130
22 -42 31 -52 28 -33 -5 33 -1 34 27 11 13 -12 11 -5 -7 17 -37 46 -56 90 -69
158 -13 67 -16 247 -23 1742 -6 1020 -5 1134 10 1220 22 121 40 163 100 223
l47 49 25 -44 c55 -94 203 -408 203 -428 0 -6 4 -9 9 -6 8 5 25 -30 22 -47 -1
-4 6 -15 15 -24 8 -9 13 -24 11 -35 -3 -10 -1 -16 4 -12 5 3 9 -7 9 -23 0 -15
11 -48 24 -73 13 -25 21 -51 18 -59 -2 -8 0 -11 6 -7 5 3 12 -6 14 -22 3 -15
8 -36 13 -47 5 -16 5 -17 -4 -5 -16 22 -13 3 3 -23 8 -12 20 -50 26 -84 8 -38
17 -60 23 -56 6 3 7 1 3 -5 -9 -14 24 -152 36 -152 5 0 7 -4 4 -8 -10 -17 66
-381 87 -413 57 -88 145 -387 157 -538 10 -127 -9 -394 -36 -501 l-6 -25 16
22 c74 99 210 524 245 763 5 36 16 82 25 102 9 21 16 45 16 55 0 10 11 41 25
68 28 56 32 78 10 49 -13 -17 -14 -2 -15 140 0 88 -2 157 -4 155 -2 -2 -6 -44
-9 -94 -4 -49 -10 -119 -14 -155 l-7 -65 -12 40 c-10 36 -11 31 -6 -46 6 -101
-1 -141 -23 -133 -8 4 -15 16 -15 28 0 11 -5 28 -11 36 -7 11 -8 4 -4 -25 6
-39 6 -40 -9 -15 -19 31 -20 15 -3 -36 8 -22 17 -52 21 -69 12 -54 -12 -5 -38
75 -20 63 -24 89 -19 155 4 59 1 87 -10 108 l-14 27 -7 -52 c-9 -76 -7 -147 3
-182 6 -17 15 -58 22 -91 7 -33 21 -78 31 -100 22 -51 22 -99 -1 -206 -19 -85
-109 -367 -136 -424 -13 -29 -13 -28 -7 20 17 131 1 876 -22 1035 -60 416
-198 899 -353 1235 -112 242 -156 331 -215 430 -282 471 -574 821 -973 1164
-660 568 -1529 946 -2400 1046 -331 38 -640 44 -910 20z m-2465 -1175 c-22
-31 -49 -54 -35 -29 10 17 47 59 52 59 3 0 -5 -13 -17 -30z m-70 -74 c0 -2
-22 -26 -50 -54 -27 -28 -50 -48 -50 -44 0 6 91 102 97 102 2 0 3 -2 3 -4z
m6645 -1176 c-3 -5 -20 -19 -38 -30 l-32 -22 33 31 c32 30 49 40 37 21z m420
-1478 c-21 -5 -40 12 -30 28 5 8 13 6 27 -7 18 -16 19 -18 3 -21z m265 -448
c11 -36 20 -74 19 -83 0 -15 -29 66 -43 124 -13 52 4 22 24 -41z m-242 7 c12
-10 22 -30 22 -45 0 -24 -3 -26 -27 -20 -16 4 -32 11 -37 15 -16 14 -29 10
-22 -6 8 -21 -11 -19 -22 2 -12 21 4 60 27 66 30 9 38 7 59 -12z m-52 -116
c19 -14 19 -14 -2 -15 -12 0 -27 7 -34 15 -17 20 9 21 36 0z m-111 -273 c-19
-4 -37 16 -28 31 3 4 14 0 25 -10 18 -16 19 -18 3 -21z m-744 -954 c-16 -67
-33 -141 -38 -163 l-9 -40 -94 -2 c-74 -1 -86 1 -55 7 22 5 61 9 86 9 l46 1
33 123 c17 67 37 142 43 166 6 24 13 39 15 33 1 -5 -10 -66 -27 -134z m289 38
c0 -16 -31 17 -47 48 l-15 31 31 -35 c16 -19 30 -39 31 -44z m-425 -313 c-146
-7 -293 -7 -288 0 2 4 82 6 176 5 95 -1 145 -3 112 -5z m-206 -187 c7 -13 27
-30 44 -38 32 -15 205 -169 237 -211 10 -12 32 -55 50 -96 29 -67 31 -76 16
-86 -10 -8 -16 -27 -16 -49 0 -22 -4 -35 -10 -31 -5 3 -10 15 -10 26 0 10 -5
19 -11 19 -9 0 -10 21 -6 73 4 40 2 79 -3 87 -7 10 -10 -5 -10 -50 0 -36 -3
-82 -7 -104 l-6 -39 -18 34 c-10 19 -19 43 -19 54 -1 13 -3 15 -7 6 -3 -8 -24
23 -50 74 -59 120 -134 246 -150 252 -6 3 -17 21 -24 41 -6 21 -16 43 -22 50
-6 7 -6 12 0 12 5 0 15 -11 22 -24z m92 -203 c27 -44 60 -112 74 -149 28 -75
56 -236 54 -316 l-1 -53 -10 55 c-9 49 -52 129 -78 145 -5 3 7 -29 26 -71 39
-86 39 -113 0 -36 -14 28 -30 53 -36 57 -14 9 -13 -1 9 -43 10 -20 22 -48 26
-62 7 -22 6 -23 -8 -12 -14 12 -15 10 -7 -19 16 -53 6 -43 -30 31 -21 44 -39
69 -48 67 -9 -1 -20 13 -28 36 -9 24 -9 37 -2 37 6 0 3 11 -7 26 -18 28 -12
90 7 78 8 -5 9 1 4 17 -18 60 -27 111 -21 117 4 4 10 2 12 -4 7 -20 31 -49 36
-44 5 5 -17 119 -34 176 -5 17 -9 44 -9 60 1 27 2 27 12 9 6 -11 32 -57 59
-102z m700 -32 c-20 -73 -27 -45 -10 43 11 59 14 66 19 41 3 -16 -1 -54 -9
-84z m-117 -43 c-11 -146 -25 -236 -50 -310 -31 -94 -42 -100 -14 -7 19 59 28
125 46 312 9 84 24 89 18 5z m26 -114 c-17 -49 -24 -36 -9 17 6 24 14 38 16
32 3 -7 -1 -29 -7 -49z m-110 -66 c0 -18 -5 -40 -10 -48 -7 -11 -10 -2 -10 33
0 26 5 47 10 47 6 0 10 -15 10 -32z m-219 -85 c-8 -14 -10 -6 -10 37 1 55 1
55 11 18 7 -25 6 -43 -1 -55z m194 -132 c-9 -34 -13 -66 -10 -71 3 -5 -6 -21
-19 -37 -13 -15 -26 -38 -30 -50 -4 -11 -13 -27 -21 -33 -10 -8 -7 6 9 41 13
30 35 91 51 137 32 97 40 103 20 13z m-205 -93 c-11 -26 -25 -50 -30 -53 -5
-3 2 18 15 47 14 29 26 69 27 88 l1 35 4 -35 c2 -21 -4 -54 -17 -82z m-148
-165 c-11 -43 -20 -85 -20 -93 0 -8 -12 -37 -27 -65 -14 -27 -23 -39 -20 -25
4 14 23 88 43 164 21 76 38 129 40 118 2 -12 -5 -57 -16 -99z"/>
<path d="M9418 4550 c9 -16 18 -25 20 -20 4 12 -17 50 -28 50 -5 0 -1 -13 8
-30z"/>
<path d="M9521 4140 c27 -56 29 -58 29 -32 0 11 -11 34 -25 49 l-26 28 22 -45z"/>
<path d="M1315 10631 c-36 -15 -72 -60 -93 -117 -28 -71 -20 -112 47 -237 35
-66 55 -121 71 -195 l23 -102 -30 -43 c-60 -83 -62 -157 -7 -255 36 -63 36
-66 25 -116 -6 -28 -29 -87 -51 -130 -36 -71 -40 -87 -39 -150 1 -81 13 -122
49 -163 13 -15 22 -29 20 -31 -10 -5 84 -105 124 -130 22 -15 47 -33 54 -39 7
-7 24 -13 37 -13 26 0 42 -16 23 -22 -17 -6 74 -47 124 -55 40 -6 37 -8 -52
-19 -101 -13 -191 -44 -277 -96 -70 -42 -146 -157 -137 -205 4 -20 2 -33 -4
-33 -6 0 -12 10 -14 23 -3 16 -9 7 -27 -38 -24 -60 -24 -60 -7 -160 9 -55 16
-145 16 -199 0 -92 2 -103 26 -138 28 -39 48 -51 37 -21 -6 15 -5 16 9 3 9 -8
14 -18 12 -22 -2 -3 1 -18 8 -32 15 -33 -2 -52 -128 -146 -51 -38 -95 -73 -98
-78 -3 -6 -28 -18 -55 -27 -47 -15 -98 -52 -87 -62 10 -10 56 -11 62 -2 3 5 0
9 -7 9 -8 0 -8 4 1 15 15 18 37 20 42 3 2 -6 37 19 78 56 86 80 163 133 244
170 112 50 70 1 -49 -59 -86 -43 -189 -125 -211 -167 -9 -17 -16 -50 -16 -72
0 -30 -2 -36 -8 -21 -7 18 -8 19 -15 3 -8 -21 -41 -24 -49 -5 -3 8 -11 5 -25
-11 -25 -29 -44 -19 -39 19 3 20 0 29 -9 29 -7 0 -16 1 -20 3 -14 5 -22 -59
-13 -95 40 -146 241 -71 215 81 -6 37 -4 42 47 93 67 69 143 106 231 115 66 6
67 6 107 -31 52 -46 84 -59 135 -52 23 4 60 0 88 -9 45 -14 53 -13 110 6 34
12 68 26 75 31 24 21 20 2 -24 -110 -129 -327 -201 -747 -208 -1212 -2 -129
-1 -188 3 -130 6 104 6 104 13 -85 23 -598 189 -1248 460 -1789 590 -1181
1739 -2055 3110 -2366 343 -78 614 -111 978 -117 535 -10 960 46 1425 187 270
82 339 109 794 310 134 59 122 44 -17 -20 -575 -266 -1012 -399 -1527 -465
-414 -53 -920 -44 -1325 26 -264 45 -465 88 -595 128 -33 11 -94 29 -135 42
-326 98 -813 323 -1125 519 -160 101 -428 302 -580 434 -96 84 -354 341 -412
411 -23 28 -54 64 -69 80 -67 77 -253 333 -330 455 -43 67 -44 70 -109 184
-32 58 -61 103 -63 101 -4 -4 18 -45 97 -182 65 -114 222 -347 290 -429 14
-18 46 -58 71 -89 296 -380 754 -775 1200 -1036 174 -102 194 -113 355 -192
601 -296 1252 -463 1939 -497 180 -9 549 -1 681 15 550 67 1031 197 1438 389
54 25 100 46 102 46 2 0 45 19 97 43 88 41 131 59 206 87 48 19 32 23 -18 5
-23 -8 -48 -15 -54 -14 -6 0 20 11 58 25 39 13 77 24 85 23 9 -1 5 -5 -9 -10
-21 -7 -19 -8 10 -3 19 3 76 9 125 15 50 5 104 12 122 15 32 6 103 -11 103
-25 0 -21 55 -61 84 -61 38 0 46 6 68 48 23 43 10 78 -37 98 -33 13 -38 13
-83 -10 -42 -23 -44 -25 -19 -26 15 0 27 -5 27 -11 0 -7 -9 -9 -24 -5 -113 28
-284 28 -401 0 -12 -3 -8 2 9 12 22 12 65 18 160 22 152 6 141 21 -13 17 -103
-2 -104 -2 -80 16 47 37 232 120 317 143 48 13 104 31 124 40 24 10 73 17 137
19 l98 2 34 -33 c18 -18 44 -35 57 -39 33 -8 70 12 78 42 8 31 0 42 -19 27 -8
-7 -17 -8 -23 -2 -20 20 -192 33 -292 22 -165 -19 -202 -33 -442 -157 -21 -11
-46 -27 -56 -36 -29 -25 -80 -49 -106 -49 -13 0 -106 -42 -208 -94 -419 -213
-768 -340 -1170 -425 -492 -105 -1001 -125 -1515 -61 -439 54 -872 164 -1228
312 -67 27 -143 59 -170 69 -128 51 -430 212 -617 329 -350 219 -727 533 -966
805 -611 696 -976 1546 -1066 2485 -16 167 -15 716 2 855 26 223 91 517 126
570 8 12 32 67 53 122 59 150 98 223 145 268 23 22 56 57 74 79 61 70 45 29
-27 -73 -163 -230 -259 -638 -277 -1181 -24 -735 143 -1528 454 -2146 141
-280 368 -617 585 -869 177 -205 539 -546 697 -656 30 -21 87 -61 125 -88 210
-150 558 -347 800 -452 752 -326 1546 -452 2350 -373 447 44 952 182 1356 372
94 44 215 113 229 131 8 9 89 61 96 61 14 0 214 103 214 109 0 4 12 13 28 20
48 22 206 133 252 178 25 23 50 43 55 43 6 0 39 24 74 53 47 38 68 63 78 92 7
22 24 50 37 61 35 31 138 179 171 244 35 71 20 56 -52 -52 -83 -124 -199 -254
-340 -377 -120 -106 -299 -238 -310 -228 -3 3 28 40 68 81 40 42 94 106 120
142 44 59 66 102 172 324 17 36 35 70 39 75 22 28 76 114 90 145 28 61 51 198
43 263 -7 63 -57 212 -80 237 -21 23 -71 139 -86 198 -7 28 -16 52 -19 52 -9
0 -40 -143 -34 -150 11 -10 24 27 24 68 0 26 4 41 10 37 6 -3 10 -23 10 -43 0
-20 6 -49 14 -64 8 -14 16 -60 19 -101 7 -103 26 -136 27 -47 1 61 1 64 15 40
8 -14 14 -42 15 -64 0 -30 3 -37 15 -32 10 4 15 -1 15 -16 0 -12 7 -30 16 -39
29 -32 18 -215 -16 -279 -20 -37 -19 -18 2 70 17 67 19 98 13 145 -9 62 -10
61 -20 -18 -8 -64 -25 -60 -20 6 2 28 2 43 -2 32 -17 -60 -24 -71 -34 -53 -5
9 -12 51 -16 92 -3 42 -10 76 -14 76 -5 0 -9 -42 -10 -92 -1 -51 -4 -104 -8
-118 -8 -25 -8 -25 -31 13 -12 21 -24 36 -26 35 -5 -6 28 -112 42 -133 7 -11
10 -25 6 -32 -4 -7 -14 5 -24 30 -8 23 -26 68 -38 100 -26 67 -38 71 -16 6 8
-24 17 -60 20 -79 l7 -35 -17 30 c-28 50 -28 10 0 -70 31 -86 33 -108 4 -45
-36 81 -71 184 -79 235 -6 41 -7 35 -5 -40 1 -50 6 -97 11 -105 5 -8 10 -17
11 -20 6 -32 18 -59 24 -55 9 6 20 -19 20 -46 0 -11 7 -31 16 -45 13 -19 16
-42 12 -102 -4 -69 -10 -90 -61 -192 -74 -152 -250 -392 -352 -480 -70 -61
-67 -48 6 28 36 37 78 85 94 107 16 22 44 55 63 74 72 75 119 197 101 261 -6
21 -7 19 -9 -15 -2 -44 -17 -102 -19 -72 -1 9 -6 17 -11 17 -6 0 -8 10 -5 23
4 12 1 36 -5 52 -9 24 -8 31 5 41 11 9 13 14 5 19 -23 14 -34 -16 -35 -93 -3
-190 -138 -387 -373 -545 -289 -193 -784 -376 -1267 -466 -593 -111 -1316 -87
-1913 65 -1243 316 -2236 1059 -2859 2139 -220 382 -405 890 -463 1270 -5 33
-18 112 -29 175 -11 63 -26 167 -32 230 -17 158 -17 565 0 725 8 72 15 153 17
180 4 100 4 103 15 80 6 -13 7 2 3 47 -4 48 -1 84 11 123 9 31 17 71 19 88 7
69 19 116 28 111 5 -3 6 6 2 22 -5 19 -4 25 4 20 8 -5 10 2 6 22 -4 19 0 40
11 58 13 23 15 24 11 7 -17 -67 -17 -69 -7 -48 6 11 31 74 57 139 41 106 104
226 104 200 0 -5 12 11 27 36 34 58 63 91 76 83 5 -3 13 1 18 8 7 11 9 11 9 1
0 -7 4 -10 10 -7 14 9 14 9 -30 -108 -73 -194 -105 -431 -81 -597 15 -100 58
-235 108 -339 20 -42 36 -80 34 -86 -1 -5 0 -7 4 -3 4 4 33 -28 65 -70 31 -42
74 -92 93 -111 20 -19 34 -38 31 -43 -3 -5 -2 -7 3 -6 4 1 42 -22 83 -53 41
-30 99 -70 128 -88 28 -18 52 -35 52 -37 0 -7 -31 11 -100 57 -34 22 -63 39
-66 37 -4 -5 54 -230 62 -237 4 -3 3 10 0 29 -12 62 11 9 28 -65 8 -38 25 -94
36 -124 12 -29 19 -56 16 -59 -3 -2 -34 1 -68 7 -217 41 -409 159 -541 333
-55 73 -157 259 -157 287 0 8 -3 11 -7 8 -11 -12 47 -143 103 -234 95 -152
243 -285 395 -358 105 -49 201 -65 413 -66 170 -1 186 -3 298 -34 l119 -32
-28 29 c-24 26 -25 30 -8 25 11 -3 38 -8 60 -12 43 -7 75 -26 149 -89 51 -42
67 -42 45 1 -7 16 -15 31 -17 36 -2 4 4 4 13 1 13 -5 10 7 -14 55 -18 34 -29
66 -26 70 3 5 24 7 47 5 24 -2 65 -6 92 -8 304 -25 579 -177 809 -446 44 -51
46 -52 25 -15 -40 72 -141 177 -247 256 -164 122 -308 185 -601 260 -229 59
-342 93 -470 142 -157 60 -183 72 -200 88 -31 30 -70 49 -87 42 -10 -3 -15 -3
-11 2 4 4 3 14 -3 22 -14 16 -33 18 -23 1 4 -7 3 -8 -5 -4 -6 4 -9 11 -6 15 2
5 -18 20 -45 35 -28 15 -63 38 -80 52 -16 14 -35 22 -41 18 -7 -4 -9 -3 -5 4
3 6 -6 20 -21 32 -68 51 -198 190 -243 256 -59 89 -143 300 -160 404 -23 136
6 372 70 569 33 101 115 267 155 316 17 20 9 -2 -24 -65 -108 -206 -151 -367
-158 -590 -4 -129 -2 -171 15 -250 47 -229 165 -421 349 -569 93 -75 223 -152
187 -110 -12 13 -24 32 -27 41 -4 10 -12 15 -20 12 -11 -4 -18 15 -31 83 -9
48 -16 97 -15 108 0 17 31 -54 59 -135 9 -29 35 -84 55 -119 15 -27 144 -99
288 -160 95 -41 134 -51 121 -30 -4 7 0 9 14 5 24 -8 62 12 63 34 0 8 5 4 11
-10 25 -60 17 8 -12 102 -45 145 -87 321 -109 458 -11 65 -24 127 -31 139 -6
12 -8 31 -5 42 6 17 -4 120 -21 237 -10 64 -49 31 -60 -51 -5 -37 -11 -47 -38
-60 -18 -8 -58 -38 -89 -67 -31 -29 -57 -47 -57 -42 0 14 -73 7 -78 -7 -6 -19
-22 -12 -22 9 0 20 -24 28 -34 11 -9 -15 31 -308 57 -421 30 -126 38 -170 32
-170 -3 0 -18 27 -35 59 -46 91 -76 228 -97 438 -3 29 -9 51 -13 48 -17 -11
-21 40 -19 260 2 284 23 454 84 693 48 184 147 442 210 543 18 30 61 101 93
159 33 58 88 140 122 182 34 43 59 82 56 86 -3 5 4 18 16 28 20 18 21 18 15 1
-4 -11 -3 -16 4 -12 5 4 7 15 4 25 -4 12 3 23 20 34 14 9 25 14 25 10 0 -4 33
25 74 63 98 94 160 142 259 201 468 282 865 356 1362 257 247 -50 412 -119
641 -271 113 -74 178 -127 267 -214 125 -123 152 -146 100 -89 -54 58 -37 57
24 -1 65 -62 31 -20 -67 83 -224 235 -551 424 -880 508 -41 11 -144 29 -230
40 -525 71 -1055 -100 -1500 -485 -58 -50 -116 -104 -130 -120 -48 -58 -84
-91 -96 -88 -6 1 -29 -19 -50 -44 -21 -26 -54 -63 -72 -83 -18 -20 -49 -63
-69 -95 -20 -33 -38 -55 -41 -48 -4 14 12 45 60 108 29 39 38 60 38 91 0 24 6
46 15 53 8 7 15 19 15 27 0 8 12 34 26 58 14 25 24 55 22 67 -4 23 -4 22 -18
-4 -7 -16 -19 -28 -25 -28 -7 0 -20 -9 -30 -20 -25 -28 -35 -25 -35 10 0 18 5
30 13 30 16 0 47 32 47 48 0 20 -22 13 -27 -8 -3 -11 -9 -20 -13 -20 -7 0 -3
25 15 108 8 32 25 45 25 17 0 -21 22 -65 32 -65 11 0 4 27 -24 90 -14 34 -21
41 -28 30 -8 -12 -10 -12 -16 3 -9 24 18 92 82 209 102 186 222 337 444 559
143 144 145 145 185 142 22 -2 51 2 65 9 30 16 54 62 45 86 -6 16 -7 16 -20
-1 -11 -15 -17 -16 -34 -8 -11 7 -32 9 -46 5 -22 -5 -25 -3 -25 18 0 44 89 67
110 28 11 -21 30 -27 30 -10 0 23 -41 50 -75 50 -56 0 -94 -42 -100 -109 -3
-44 -10 -61 -37 -90 -18 -20 -40 -40 -48 -45 -8 -5 -38 -33 -66 -62 -28 -30
-56 -54 -62 -54 -7 0 -12 -4 -12 -9 0 -12 -161 -196 -171 -196 -5 0 -8 -3 -6
-6 1 -3 -13 -22 -30 -43 -18 -20 -33 -42 -33 -49 0 -7 -20 -33 -45 -57 -26
-25 -43 -51 -40 -58 7 -20 -6 -37 -16 -21 -6 10 -8 8 -7 -6 0 -11 -18 -58 -41
-105 -42 -88 -47 -75 -6 18 13 28 20 52 14 52 -5 0 -9 14 -9 30 0 50 -18 34
-30 -27 -16 -77 -30 -122 -47 -156 -22 -44 -26 -26 -8 48 8 37 13 70 11 73 -3
2 -8 -9 -11 -24 -12 -52 -15 -50 -9 6 6 54 22 109 23 81 2 -32 13 2 31 94 22
105 24 128 11 105 -4 -8 -14 -50 -21 -92 -7 -43 -17 -78 -22 -78 -5 0 -7 8 -4
18 3 9 10 46 16 82 6 36 15 79 20 95 19 58 110 594 110 642 0 18 5 33 10 33
11 0 12 -23 1 -97 -11 -75 5 -55 19 24 6 38 21 86 32 108 12 22 15 34 7 28
-29 -28 -29 -11 0 24 53 64 37 124 -37 139 -28 6 -37 1 -72 -34 -39 -39 -50
-65 -30 -77 6 -3 10 -14 10 -23 0 -9 10 -36 22 -59 l22 -42 -17 -133 c-9 -73
-39 -250 -66 -393 -27 -143 -60 -318 -72 -390 l-22 -130 -52 -50 c-50 -48 -95
-115 -110 -164 -4 -12 -24 -51 -45 -85 -40 -63 -55 -110 -65 -211 -8 -71 -20
-57 -29 35 -13 124 -46 334 -67 424 -108 462 -523 1032 -916 1257 -135 77
-260 107 -328 80z m1881 -56 c16 -25 16 -27 -4 -45 -17 -16 -26 -18 -48 -10
-22 9 -31 7 -43 -4 -13 -14 -13 -19 2 -52 22 -45 17 -53 -10 -16 -27 36 -26
92 2 102 14 5 16 8 5 15 -9 6 -7 11 11 21 37 21 67 17 85 -11z m-1886 7 c0 -5
-9 -17 -20 -27 -22 -20 -26 -14 -10 16 11 19 30 26 30 11z m245 -29 c180 -74
440 -303 646 -569 210 -272 348 -631 394 -1032 28 -243 27 -221 11 -187 -7 16
-17 74 -20 130 -15 219 -100 526 -205 732 -50 99 -120 215 -121 200 0 -5 8
-21 19 -35 48 -69 147 -298 175 -408 13 -50 13 -56 0 -40 -14 19 -14 19 -15
-5 -3 -55 21 -134 46 -151 6 -5 4 -8 -5 -8 -9 0 -25 23 -39 60 -14 34 -29 63
-34 67 -5 3 -22 34 -37 68 -15 34 -33 66 -39 69 -14 9 15 -64 64 -163 21 -41
40 -91 42 -112 5 -36 4 -37 -18 -32 l-23 6 22 -37 c24 -41 30 -68 10 -48 -34
34 -21 3 28 -69 53 -77 123 -214 138 -269 4 -14 -11 7 -33 45 -22 39 -41 76
-41 84 0 19 -30 67 -120 191 -41 58 -88 125 -104 149 -43 67 -171 235 -192
251 -28 23 210 -321 302 -435 36 -45 107 -155 100 -155 -3 0 -29 35 -60 78
-50 71 -124 172 -358 488 -83 112 -178 275 -178 306 0 58 -82 166 -165 219
-40 25 -56 24 -25 -2 20 -17 21 -19 5 -13 -11 4 -47 16 -80 27 -115 37 -166
60 -176 78 -5 11 -14 19 -20 19 -6 0 -7 -4 -4 -10 3 -5 2 -10 -3 -10 -5 0 -13
21 -17 48 -7 45 -57 185 -96 266 -24 51 -20 54 21 16 18 -16 39 -30 46 -30 20
0 88 -29 82 -35 -3 -3 -24 2 -48 10 -51 18 -61 13 -34 -16 22 -24 60 -48 50
-30 -4 6 -4 11 1 10 7 0 122 -58 264 -132 l54 -29 -30 30 c-16 16 -70 50 -118
76 -88 46 -114 64 -113 79 1 5 -26 25 -59 45 -131 78 -137 83 -132 103 3 10 1
19 -4 19 -15 0 -10 78 7 94 40 40 139 40 239 -1z m-271 -173 l6 -35 -15 30
c-16 33 -21 82 -6 55 5 -8 11 -31 15 -50z m81 -203 c25 -77 34 -164 16 -152
-5 3 -8 20 -5 38 3 21 -7 64 -29 127 -19 52 -37 104 -41 115 -4 11 2 4 13 -15
11 -19 32 -70 46 -113z m2419 -14 c-10 -7 -32 -13 -48 -13 l-31 0 35 18 c41
21 75 17 44 -5z m-2361 -168 c4 -9 -5 -22 -23 -35 -17 -12 -30 -18 -30 -13 0
4 9 14 21 21 16 11 18 16 9 28 -10 11 -9 14 3 14 8 0 17 -7 20 -15z m243 -73
c67 -23 127 -51 152 -70 45 -36 79 -106 62 -127 -7 -8 -7 -16 -2 -19 12 -7 72
-121 72 -136 0 -5 9 -19 20 -30 29 -29 25 -43 -8 -26 -67 35 -185 57 -297 55
-128 -1 -210 21 -210 56 0 17 6 20 43 17 59 -3 53 14 -12 34 -43 13 -56 23
-61 42 -3 13 -4 27 -1 30 3 3 -2 11 -12 18 -16 13 -15 15 8 33 22 17 23 21 8
26 -22 9 -41 -3 -34 -21 3 -8 -1 -14 -9 -14 -19 0 -19 -3 6 -51 24 -49 20 -61
-10 -23 -16 21 -21 41 -21 90 0 82 15 113 65 135 60 28 117 23 241 -19z m-320
-229 c-10 -11 -26 18 -25 47 0 24 1 23 16 -7 9 -18 13 -36 9 -40z m155 -128
c35 -14 72 -30 82 -35 13 -8 17 -6 17 6 0 27 203 14 298 -19 120 -42 155 -73
272 -248 25 -37 78 -109 118 -161 68 -90 85 -117 62 -103 -5 3 -10 2 -10 -3 0
-11 60 -68 60 -56 0 9 60 -82 60 -92 0 -3 -4 -2 -10 1 -5 3 -10 -1 -10 -10 0
-18 -29 -1 -126 76 -33 25 -124 88 -204 139 -80 50 -163 109 -185 130 -22 22
-62 48 -89 60 -27 11 -55 28 -61 37 -10 13 -17 14 -41 5 -16 -6 -22 -11 -14
-11 33 -2 177 -81 210 -116 33 -35 194 -146 262 -181 38 -20 119 -86 113 -92
-2 -2 -32 16 -66 42 -63 47 -107 65 -54 21 37 -30 36 -30 -50 0 -44 16 -71 21
-75 14 -5 -6 -21 -7 -48 0 -23 5 -42 7 -42 5 0 -8 86 -42 120 -48 19 -4 53
-15 75 -26 22 -10 75 -35 118 -54 42 -19 77 -40 77 -45 0 -14 1 -14 -48 9 -39
19 -137 41 -337 75 -49 9 -134 27 -189 41 -54 14 -101 23 -103 20 -9 -8 58
-37 105 -46 170 -32 375 -71 417 -81 59 -13 217 -70 211 -76 -2 -2 -44 7 -92
21 -141 39 -219 55 -322 67 -143 15 -241 38 -288 65 -23 14 -68 29 -100 34
-63 10 -153 64 -181 107 -17 26 -10 43 11 28 34 -26 123 -82 139 -88 30 -11
19 0 -27 27 -25 14 -53 36 -63 49 -10 13 -26 26 -35 30 -9 3 -24 21 -34 39 -9
18 -27 47 -39 63 -28 38 -43 114 -24 125 10 7 10 11 -1 25 -9 11 -10 19 -2 27
6 6 8 16 6 22 -3 7 2 26 11 42 8 16 15 34 15 40 0 7 6 14 14 17 8 3 17 27 21
56 4 28 8 51 9 51 1 0 31 -11 67 -25z m-155 -112 c-18 -34 -25 -42 -26 -27 0
12 7 27 15 34 8 7 18 28 22 49 5 26 8 30 11 14 2 -12 -8 -43 -22 -70z m1539
-198 c-22 -18 -42 -31 -45 -28 -3 3 13 20 35 38 22 19 42 32 45 29 2 -3 -13
-20 -35 -39z m104 18 c-6 -16 -11 -66 -11 -113 0 -81 -13 -120 -39 -120 -5 0
-10 46 -11 103 -2 66 -6 95 -11 82 -5 -11 -16 -33 -24 -49 -10 -19 -14 -42
-10 -71 7 -50 2 -58 -26 -43 -16 8 -23 7 -31 -4 -6 -8 -22 -20 -35 -28 -26
-13 -26 -7 -5 44 5 13 4 17 -4 12 -6 -4 -17 -25 -23 -46 -7 -22 -18 -40 -26
-40 -21 0 -15 24 16 67 16 22 37 55 46 74 21 40 93 108 116 109 9 0 31 11 50
24 19 13 35 25 36 25 1 1 -2 -11 -8 -26z m-1654 -64 c4 -17 4 -33 1 -36 -9 -9
-12 -2 -19 35 -8 41 9 42 18 1z m64 -85 c24 -40 23 -59 -1 -22 -16 25 -29 58
-24 58 2 0 14 -16 25 -36z m1431 -139 c-9 -11 -11 -38 -7 -96 7 -91 -13 -152
-56 -168 -34 -13 -40 -2 -18 35 11 19 16 36 10 39 -15 10 -11 62 6 69 8 3 15
15 15 26 0 12 -4 18 -10 15 -10 -6 17 63 32 83 6 6 17 12 25 12 13 0 13 -3 3
-15z m149 -103 c1 -33 -5 -49 -24 -70 -14 -15 -25 -21 -25 -15 0 7 5 15 10 18
6 3 10 11 10 16 0 5 -11 2 -24 -6 -23 -15 -24 -15 -30 16 -5 25 1 48 25 98
l32 66 13 -40 c7 -22 13 -59 13 -83z m-243 57 c-8 -19 -19 -50 -25 -69 l-11
-35 4 36 c5 40 34 115 42 107 2 -3 -2 -21 -10 -39z m-15 -175 c-17 -38 -29
-28 -18 16 9 32 13 37 20 24 6 -10 5 -25 -2 -40z m-569 27 c86 -20 144 -40
118 -40 -24 0 -237 57 -218 58 10 1 55 -8 100 -18z m-337 -21 c3 -5 32 -10 64
-10 57 0 196 -26 293 -55 28 -8 65 -15 81 -15 39 0 146 -33 222 -69 l60 -27
-85 -7 c-47 -4 -96 -9 -110 -11 -75 -11 -223 -39 -275 -52 -81 -20 -305 -30
-332 -16 -14 8 -30 8 -49 2 -16 -6 -49 -17 -74 -25 l-45 -15 60 6 c33 4 130 8
215 9 85 1 166 5 180 9 37 12 -42 -58 -98 -86 -48 -25 -61 -38 -37 -38 20 0
108 57 158 103 39 36 115 58 247 73 l55 6 -33 -21 c-18 -12 -35 -21 -38 -21
-3 0 -16 -13 -30 -29 -13 -16 -55 -47 -94 -70 -38 -23 -70 -46 -70 -52 0 -5 7
-6 18 -1 95 47 153 80 185 105 21 16 40 27 43 24 3 -2 -19 -21 -48 -42 -29
-21 -64 -46 -78 -56 -14 -11 -41 -30 -60 -43 -57 -38 -135 -114 -126 -123 4
-4 22 8 40 27 38 42 110 100 124 100 5 0 15 7 23 16 7 8 33 26 58 39 25 13 64
39 86 59 22 20 48 39 58 42 10 3 16 13 15 22 -2 13 5 17 34 18 21 0 41 3 45 7
3 4 11 7 17 7 5 0 -3 -13 -19 -30 -16 -16 -23 -30 -17 -30 7 0 12 4 12 9 0 5
9 13 20 16 11 3 20 13 20 21 0 8 9 14 20 14 10 0 24 9 30 20 6 11 16 18 22 14
11 -7 -11 -30 -77 -79 -22 -16 -80 -68 -130 -116 -49 -48 -130 -114 -180 -147
-49 -33 -114 -85 -143 -116 -29 -31 -57 -56 -61 -56 -12 0 -72 -94 -62 -98 10
-3 65 42 100 82 80 91 107 118 124 128 11 5 -6 -21 -37 -60 -50 -61 -76 -106
-44 -74 7 7 16 12 21 12 5 0 -9 -19 -32 -41 -22 -23 -41 -45 -41 -50 0 -5 -16
-27 -36 -49 -20 -22 -32 -40 -26 -40 6 0 28 20 49 43 21 24 49 50 62 57 22 11
21 8 -10 -34 -19 -25 -39 -55 -45 -66 -16 -29 -84 -77 -133 -95 -37 -13 -57
-6 -31 10 6 3 10 14 10 22 0 13 -6 11 -27 -9 -24 -22 -103 -45 -103 -29 0 2
20 45 44 95 49 101 94 153 204 234 40 29 72 57 72 63 0 5 6 9 14 9 7 0 19 7
26 15 38 45 -73 -24 -155 -97 -27 -24 -76 -66 -108 -91 -32 -26 -51 -47 -42
-47 15 0 -75 -117 -113 -147 -22 -18 -45 -16 -39 2 5 11 0 13 -22 9 -30 -6
-86 17 -93 38 -4 11 -8 11 -20 0 -19 -16 -85 -19 -99 -5 -13 13 15 73 34 73 7
0 31 18 52 40 26 27 45 38 57 35 19 -7 78 20 78 35 0 13 -7 13 -32 -1 -16 -9
-19 -8 -16 3 3 7 20 13 41 13 19 0 39 3 43 8 4 4 0 7 -9 7 -9 0 -17 5 -17 10
0 6 8 10 19 10 10 0 24 7 31 15 18 22 3 18 -65 -15 -33 -16 -67 -30 -75 -30
-8 0 -22 -5 -30 -11 -11 -8 -8 -9 14 -4 26 6 28 4 16 -10 -7 -9 -50 -41 -96
-71 -106 -71 -104 -72 -177 83 -13 29 -2 41 24 25 16 -10 25 -9 50 3 32 17 63
17 62 0 0 -11 27 -34 40 -35 4 0 7 5 7 10 0 6 -7 10 -17 10 -15 0 -15 2 1 19
24 27 15 37 -41 46 -27 4 -54 12 -62 18 -10 9 -18 5 -33 -16 -33 -46 -52 -36
-45 24 4 29 9 54 12 58 8 7 25 -21 19 -30 -2 -4 0 -10 6 -14 6 -3 10 4 10 17
0 13 5 29 12 36 14 14 4 15 -37 3 l-30 -8 -2 60 c-1 33 -6 71 -11 86 -26 66
-24 81 10 113 52 48 89 60 171 53 52 -5 68 -4 57 4 -8 6 -25 11 -36 11 -12 0
-41 7 -64 15 -42 15 -43 14 -66 -10 -13 -14 -26 -25 -29 -25 -12 0 18 43 65
91 39 41 48 55 39 65 -8 10 -8 15 2 18 8 3 40 14 73 25 56 19 161 37 256 44
25 2 53 4 62 5 9 1 20 -2 23 -8z m586 -51 c66 -22 119 -46 119 -54 0 -3 -17 2
-37 11 -21 9 -64 25 -95 36 -32 11 -58 22 -58 24 0 6 2 6 71 -17z m612 -31 c6
-18 -52 -117 -92 -158 -13 -13 -14 -12 -7 10 4 14 9 34 11 46 3 22 64 114 76
114 4 0 9 -6 12 -12z m-297 -14 c-3 -9 -6 -18 -6 -20 0 -2 -7 -4 -15 -4 -18 0
-19 12 -3 28 17 17 31 15 24 -4z m-1382 -26 c-10 -35 -36 -60 -48 -48 -7 7 -1
20 19 40 34 36 38 37 29 8z m1580 -188 c-15 -28 -29 -48 -31 -46 -8 8 36 96
47 96 6 0 -1 -23 -16 -50z m-108 -62 c-7 -18 -40 -91 -71 -163 -32 -71 -66
-159 -76 -195 -10 -36 -25 -90 -33 -120 -99 -345 -127 -794 -76 -1198 7 -51
10 -95 7 -98 -17 -17 -150 148 -205 253 -152 294 -133 650 54 1011 45 88 74
156 74 175 l1 32 16 -30 c22 -38 24 -95 4 -87 -9 3 -12 1 -7 -6 4 -7 -10 -32
-33 -60 -51 -61 -112 -166 -115 -198 -2 -14 -9 -30 -16 -34 -7 -5 -10 -15 -6
-25 11 -29 33 0 85 109 30 64 67 123 100 161 90 102 201 260 201 287 0 26 93
218 106 218 2 0 -2 -15 -10 -32z m-91 -86 c-22 -66 -60 -111 -77 -93 -8 9 -9
12 -1 7 6 -3 19 4 27 16 23 32 19 48 -4 18 -11 -14 -20 -19 -20 -12 0 42 81
161 88 128 2 -9 -4 -38 -13 -64z m-328 31 c-9 -10 -31 -27 -49 -37 -40 -23
-34 -16 18 24 45 34 54 37 31 13z m-1164 -75 c3 -21 1 -40 -4 -43 -5 -4 -9 4
-9 17 0 13 -3 41 -5 63 -7 51 9 17 18 -37z m1340 20 c-12 -13 -29 -37 -40 -55
-13 -21 -23 -29 -32 -24 -10 6 -7 14 11 33 12 13 31 34 40 46 10 12 23 22 30
22 6 0 2 -10 -9 -22z m48 -22 c-12 -18 -21 -49 -21 -67 0 -19 -5 -41 -11 -49
-21 -30 -2 78 20 114 13 20 25 36 28 36 2 0 -5 -15 -16 -34z m174 -98 c-20
-67 -47 -145 -59 -173 -13 -27 -28 -61 -35 -75 l-11 -25 6 25 c3 14 20 66 39
115 18 50 36 104 39 120 9 43 48 146 53 141 2 -2 -12 -60 -32 -128z m-316 28
c-10 -9 -129 -66 -129 -61 0 6 111 64 124 65 5 0 7 -2 5 -4z m-1244 -63 c-7
-40 -25 -69 -25 -41 0 19 20 78 27 78 3 0 2 -17 -2 -37z m1003 0 c-22 -43 -42
-76 -56 -95 -8 -9 -11 -21 -8 -27 9 -13 -68 -114 -133 -174 -100 -94 -280
-151 -366 -117 l-30 12 25 10 c18 7 32 5 51 -6 47 -28 176 12 281 85 51 36
164 196 227 322 7 15 16 25 18 23 3 -3 -1 -17 -9 -33z m43 -10 c-41 -56 -61
-78 -61 -69 0 10 68 96 76 96 3 0 -4 -12 -15 -27z m-931 -212 c7 -15 5 -24
-11 -43 l-20 -23 11 23 c6 12 8 32 5 42 -8 25 1 26 15 1z m185 -95 c13 -13 44
-32 69 -41 44 -17 53 -35 18 -35 -24 1 -88 42 -112 73 -27 33 -8 36 25 3z
m-41 -25 c10 -11 16 -26 14 -33 -2 -9 -13 -2 -31 19 -31 36 -14 49 17 14z
m1166 -137 c-5 -38 -10 -76 -10 -84 0 -13 -1 -13 -10 0 -18 28 -9 146 11 134
5 -3 9 3 9 12 0 10 2 15 5 12 3 -3 1 -36 -5 -74z m-72 -346 c-11 -191 -10
-204 17 -395 15 -109 33 -220 41 -247 25 -89 14 -135 -20 -83 -47 71 -78 372
-66 637 5 102 13 203 19 225 5 22 8 51 5 65 -4 19 -3 21 4 10 7 -10 6 -84 0
-212z m-1641 132 c31 -24 60 -26 85 -3 10 9 21 13 26 9 11 -12 -37 -46 -65
-46 -33 0 -83 27 -83 45 0 20 7 19 37 -5z m1810 -1186 c13 -32 27 -68 33 -79
16 -34 50 -129 46 -132 -4 -5 -106 211 -116 248 -16 55 13 27 37 -37z m62 -27
c10 -23 33 -76 50 -117 18 -41 39 -90 47 -109 28 -64 -5 -53 -37 12 -30 62
-99 239 -99 255 0 23 19 3 39 -41z m285 -246 c6 -10 -81 -24 -95 -15 -5 3 -7
10 -4 15 8 11 92 12 99 0z m5990 -2538 c-9 -52 -26 -90 -19 -44 3 18 5 44 5
57 0 13 5 24 10 24 7 0 8 -14 4 -37z m-34 -135 c-5 -25 -32 -93 -61 -149 -50
-100 -154 -269 -164 -269 -9 0 37 84 66 121 32 41 149 278 149 302 0 17 11 49
15 45 2 -2 -1 -24 -5 -50z m-255 -320 c-10 -29 -22 -57 -27 -63 -5 -6 -5 1 1
16 5 15 15 46 21 69 6 23 14 40 17 37 3 -3 -3 -30 -12 -59z m295 -3 c-24 -25
-46 -45 -49 -45 -3 0 15 20 39 45 24 25 46 45 49 45 3 0 -15 -20 -39 -45z
m460 -255 c10 0 11 -3 3 -11 -14 -14 -55 -8 -61 10 -4 10 1 12 19 8 13 -4 31
-7 39 -7z m-372 -206 c12 -8 22 -22 22 -29 0 -18 -46 -31 -63 -17 -6 6 -16 11
-22 11 -19 2 -16 19 7 35 28 20 28 20 56 0z m-67 -80 c9 -11 22 -14 41 -10 15
3 28 1 28 -3 0 -26 -76 -17 -91 10 -12 23 3 25 22 3z"/>
<path d="M1360 10545 c0 -8 1 -15 3 -15 1 -1 20 -3 42 -6 22 -3 62 -19 88 -35
62 -37 82 -37 37 1 -43 36 -34 38 30 5 52 -26 120 -104 120 -137 0 -18 1 -18
16 -4 14 14 13 20 -11 60 -30 52 -149 122 -186 111 -12 -4 -19 -3 -16 2 3 5
-7 10 -23 11 -16 1 -41 7 -55 12 -36 14 -45 13 -45 -5z"/>
<path d="M1877 10274 c113 -110 219 -224 261 -279 60 -80 102 -139 105 -149 2
-6 7 -9 10 -6 6 6 -81 137 -138 206 -59 72 -274 287 -315 314 -19 12 15 -26
77 -86z"/>
<path d="M1575 10315 c17 -14 37 -25 45 -25 8 0 -2 11 -22 25 -47 32 -62 32
-23 0z"/>
<path d="M1732 10229 c2 -5 19 -20 38 -31 l35 -22 -29 32 c-29 32 -51 42 -44
21z"/>
<path d="M1490 10181 c0 -5 7 -14 16 -22 13 -10 17 -10 24 2 7 10 4 16 -8 21
-24 9 -32 9 -32 -1z"/>
<path d="M1440 10166 c0 -8 5 -18 10 -21 6 -3 10 -16 10 -28 0 -13 3 -18 10
-11 12 12 -2 66 -18 72 -7 2 -12 -3 -12 -12z"/>
<path d="M1890 10074 c0 -3 11 -22 25 -42 30 -43 34 -31 5 16 -18 29 -30 40
-30 26z"/>
<path d="M1980 10027 c0 -18 57 -87 72 -87 12 0 -21 55 -49 82 -19 18 -23 19
-23 5z"/>
<path d="M1910 9991 c0 -5 11 -16 25 -25 14 -9 25 -12 25 -7 0 5 -11 16 -25
25 -14 9 -25 12 -25 7z"/>
<path d="M2080 9963 c0 -5 9 -19 20 -33 21 -26 27 -12 10 21 -10 19 -30 26
-30 12z"/>
<path d="M1950 9925 c0 -11 63 -36 99 -40 22 -2 50 -9 63 -15 22 -11 22 -11 3
5 -26 21 -165 63 -165 50z"/>
<path d="M2181 9814 c20 -22 46 -64 59 -92 25 -54 40 -61 33 -15 l-4 28 25
-29 c13 -16 34 -56 46 -89 12 -32 24 -57 26 -54 14 13 -80 202 -95 193 -4 -3
-21 8 -37 25 -16 17 -42 40 -59 52 -29 20 -29 20 6 -19z"/>
<path d="M1890 9837 c0 -2 7 -18 15 -33 8 -16 18 -50 21 -77 4 -26 11 -50 17
-54 6 -4 7 15 2 53 -4 32 -11 61 -16 62 -5 2 -9 9 -9 17 0 7 -7 18 -15 25 -8
7 -15 10 -15 7z"/>
<path d="M2402 9200 c9 -27 28 -50 28 -35 0 9 -30 65 -35 65 -2 0 1 -14 7 -30z"/>
<path d="M1439 9919 c-15 -9 -20 -69 -7 -69 4 0 8 6 8 14 0 33 29 40 76 18 24
-12 53 -22 62 -22 10 0 27 -7 38 -15 10 -8 28 -15 39 -15 29 0 7 14 -55 34
-30 10 -76 29 -101 41 -30 15 -51 20 -60 14z"/>
<path d="M1450 9486 c0 -16 52 -57 65 -52 9 3 27 -2 41 -10 45 -30 36 -7 -12
30 -39 30 -94 48 -94 32z"/>
<path d="M1610 9421 c0 -12 90 -64 97 -57 4 3 4 7 2 9 -67 53 -99 69 -99 48z"/>
<path d="M1510 9361 c0 -10 25 -21 48 -21 15 1 14 3 -2 15 -22 17 -46 20 -46
6z"/>
<path d="M1740 9363 c0 -16 68 -73 86 -73 10 0 3 10 -18 27 -18 15 -41 33 -50
41 -10 9 -18 10 -18 5z"/>
<path d="M1400 9281 c0 -13 48 -29 110 -36 68 -8 57 6 -22 29 -63 18 -88 20
-88 7z"/>
<path d="M1440 9190 c-13 -9 -13 -11 0 -20 18 -11 83 1 69 14 -12 10 -56 14
-69 6z"/>
<path d="M1625 9169 c4 -5 36 -9 72 -9 37 0 63 3 60 6 -11 11 -138 14 -132 3z"/>
<path d="M2174 9115 c20 -14 39 -25 42 -25 3 0 -7 11 -22 25 -15 14 -34 25
-42 25 -8 0 2 -11 22 -25z"/>
<path d="M1775 9041 c6 -6 26 -13 45 -16 42 -7 21 8 -25 19 -21 5 -27 4 -20
-3z"/>
<path d="M2305 8966 c25 -20 31 -22 38 -10 12 22 -1 34 -36 34 l-32 0 30 -24z"/>
<path d="M2295 8646 c22 -8 55 -15 73 -15 37 -1 43 -16 10 -24 -12 -4 -19 -9
-16 -13 9 -9 88 6 88 16 0 12 -93 40 -150 45 l-45 5 40 -14z"/>
<path d="M1505 8560 c-4 -6 8 -10 29 -10 19 0 38 5 41 10 4 6 -8 10 -29 10
-19 0 -38 -4 -41 -10z"/>
<path d="M2433 8533 c27 -7 20 -18 -28 -44 -25 -13 -48 -32 -51 -41 -3 -10
-10 -18 -16 -18 -7 0 -7 -5 1 -14 13 -15 -37 -66 -121 -124 -59 -41 -62 -49
-6 -21 42 22 148 115 148 131 0 4 25 34 55 66 30 31 55 60 55 65 0 4 -12 6
-27 6 -17 -1 -21 -3 -10 -6z"/>
<path d="M1260 8405 c0 -3 9 -14 20 -25 24 -24 71 -36 97 -25 17 7 17 8 -2 15
-11 5 -32 9 -47 9 -15 1 -33 8 -42 16 -15 15 -26 19 -26 10z"/>
<path d="M1443 8349 c-13 -5 -23 -13 -23 -19 0 -10 36 -5 49 6 12 10 -7 20
-26 13z"/>
<path d="M1280 8342 c0 -22 13 -42 26 -42 20 0 17 14 -6 35 -11 10 -20 13 -20
7z"/>
<path d="M1313 8283 c-33 -17 -43 -33 -20 -33 6 0 30 11 52 25 46 28 21 34
-32 8z"/>
<path d="M1768 8255 c-26 -35 -22 -39 12 -15 31 22 39 40 18 40 -7 0 -21 -11
-30 -25z"/>
<path d="M1840 8183 c-14 -3 -39 -16 -57 -29 -17 -13 -35 -24 -40 -24 -4 0
-19 -12 -32 -25 -17 -19 -19 -25 -8 -25 8 0 17 3 19 8 10 23 66 57 125 77 61
21 58 30 -7 18z"/>
<path d="M1535 8143 c-41 -10 -41 -25 0 -17 51 8 81 24 45 23 -14 -1 -34 -3
-45 -6z"/>
<path d="M1887 7990 c-46 -51 -109 -155 -100 -164 3 -2 31 23 64 57 52 56 100
139 87 153 -3 2 -26 -18 -51 -46z"/>
<path d="M6050 10623 c-504 -51 -865 -135 -1278 -297 -137 -54 -424 -191 -527
-253 -94 -56 -313 -203 -326 -219 -7 -9 59 31 147 88 245 161 515 301 719 375
272 98 419 143 615 187 163 38 192 43 309 61 807 123 1618 27 2344 -276 399
-167 838 -438 1147 -709 35 -30 72 -63 84 -73 101 -87 375 -374 456 -476 45
-57 110 -127 110 -118 0 3 -39 52 -87 109 -413 491 -801 812 -1321 1095 -505
275 -1055 442 -1641 497 -150 15 -642 20 -751 9z"/>
<path d="M3489 9573 c-26 -28 -28 -33 -10 -22 22 14 60 59 49 59 -2 0 -20 -17
-39 -37z"/>
<path d="M4500 9509 c-156 -20 -356 -83 -453 -143 -191 -119 -295 -212 -417
-375 -316 -422 -505 -1177 -462 -1847 14 -219 67 -543 106 -650 21 -55 19 -22
-4 98 -72 379 -80 872 -19 1273 30 202 110 504 171 648 28 64 34 54 9 -14
-135 -370 -197 -825 -172 -1260 14 -237 24 -338 53 -504 36 -212 110 -481 141
-510 7 -7 8 -4 3 10 -4 11 -21 65 -38 120 -92 307 -128 566 -128 929 0 270 11
401 49 627 71 413 176 703 353 974 65 100 262 315 288 315 10 0 9 -4 -1 -17
-13 -16 -12 -17 3 -4 10 7 15 17 13 22 -17 26 265 171 395 203 361 89 719 -21
1005 -309 296 -298 496 -817 546 -1420 25 -308 14 -720 -27 -983 -19 -118 -72
-326 -84 -330 -6 -2 -10 -16 -10 -31 0 -81 -157 -443 -263 -607 -48 -74 -161
-203 -232 -265 -189 -165 -375 -243 -620 -261 -135 -10 -424 -6 -475 6 -14 3
-5 -1 20 -10 74 -25 333 -39 465 -26 393 41 749 300 950 692 88 172 202 487
251 690 132 548 115 1279 -42 1800 -56 183 -61 197 -135 347 -78 157 -124 233
-188 308 -24 28 -55 64 -69 80 -13 17 -41 48 -61 70 -36 39 -23 34 34 -14 17
-14 5 1 -25 33 -80 85 -187 161 -314 223 -61 30 -97 51 -81 48 17 -4 67 -24
112 -45 257 -120 459 -322 618 -615 21 -38 42 -75 46 -81 17 -21 71 -160 110
-282 45 -137 94 -356 114 -507 16 -118 38 -508 31 -533 -3 -9 -8 -73 -11 -142
-9 -222 -30 -416 -61 -570 -22 -108 -73 -318 -89 -370 -39 -122 -65 -213 -62
-217 3 -2 17 25 33 61 15 36 29 64 31 62 7 -7 -75 -225 -82 -218 -5 4 -5 2 -1
-5 3 -6 -6 -36 -22 -65 -41 -75 -70 -169 -53 -166 3 1 17 -3 31 -9 14 -6 34
-12 45 -15 44 -8 -178 -199 -410 -350 -278 -182 -638 -274 -972 -249 -169 13
-403 70 -292 71 34 1 34 1 -16 20 -27 11 -54 19 -58 17 -9 -3 57 -92 133 -179
53 -62 48 -60 -36 12 -23 19 -57 45 -75 57 -150 97 -327 233 -304 233 36 0
224 -126 271 -183 40 -48 57 -54 32 -11 -34 58 -132 148 -258 238 -215 153
-297 197 -510 275 -63 23 -124 47 -135 53 -19 11 -148 51 -400 124 -155 45
-365 128 -435 172 -145 91 -288 254 -362 412 -58 123 -97 274 -100 384 -1 53
-4 63 -11 45 -20 -52 13 -245 65 -387 20 -55 103 -201 143 -252 11 -14 60 -66
110 -115 89 -90 139 -128 227 -174 26 -14 45 -28 42 -32 -2 -4 1 -11 7 -15 8
-4 9 -3 5 4 -10 16 0 15 37 -3 18 -8 117 -44 222 -80 104 -35 191 -69 193 -75
2 -5 8 -10 13 -10 6 0 7 5 4 10 -9 14 101 -35 149 -67 42 -27 96 -82 96 -96 0
-4 -21 9 -47 31 -46 37 -178 122 -190 122 -3 0 13 -21 37 -46 77 -84 129 -233
130 -374 0 -36 6 -87 13 -115 10 -37 11 -85 5 -189 -5 -77 -6 -141 -3 -144 15
-15 20 30 27 236 4 125 11 241 16 257 7 20 8 -18 5 -115 -6 -166 5 -275 43
-400 68 -225 51 -282 -69 -237 -23 8 -33 6 -57 -12 -38 -27 -48 -27 -60 5 -11
28 -30 24 -30 -7 0 -10 -4 -19 -10 -19 -22 0 -8 61 35 150 25 51 47 109 49
129 2 20 9 70 16 111 24 143 8 292 -56 545 -2 11 5 4 16 -15 l21 -35 -6 34
c-15 94 -79 186 -165 240 -41 26 -100 48 -100 37 0 -3 23 -28 50 -57 93 -97
158 -209 192 -334 19 -68 22 -106 23 -255 0 -194 0 -195 -73 -360 -44 -97 -47
-110 -45 -178 2 -49 -2 -83 -12 -102 -19 -38 -4 -81 47 -136 42 -45 90 -64
159 -64 55 0 121 18 114 31 -4 5 3 9 15 9 12 0 19 4 16 9 -3 5 3 11 13 14 23
6 48 42 55 82 5 24 4 26 -3 10 -5 -11 -10 -16 -10 -10 -1 5 -20 -10 -43 -32
-92 -90 -211 -98 -287 -19 -38 39 -56 112 -39 156 l9 25 21 -28 c11 -15 40
-41 65 -58 37 -26 44 -35 39 -55 -5 -19 -2 -25 17 -29 33 -9 69 8 118 55 46
43 59 39 39 -11 -16 -39 -9 -45 19 -15 26 27 43 145 30 210 -14 69 -9 84 11
36 10 -25 19 -40 19 -33 1 21 -40 122 -52 130 -25 16 -93 164 -68 149 6 -4 3
12 -5 36 -26 68 -30 239 -9 373 9 63 20 115 24 115 4 0 18 -12 32 -26 13 -14
55 -47 94 -73 96 -64 99 -66 91 -52 -13 21 10 11 42 -19 18 -16 38 -30 44 -30
5 0 7 -7 4 -16 -4 -12 -2 -15 9 -10 8 3 15 2 15 -3 0 -5 12 -16 26 -26 15 -9
23 -12 20 -6 -10 16 5 13 37 -7 15 -10 24 -22 20 -26 -5 -4 -3 -6 2 -5 17 5
56 -12 50 -21 -3 -5 0 -12 6 -16 8 -4 9 -3 5 4 -16 26 18 10 48 -22 34 -37
111 -80 126 -71 5 3 18 -3 30 -15 57 -57 544 -247 675 -263 35 -5 44 -4 30 3
-15 7 -10 8 19 3 21 -3 78 -12 125 -19 l86 -13 -80 3 c-64 3 -73 2 -45 -6 19
-5 125 -11 235 -12 183 -3 187 -2 50 3 l-150 7 126 2 c69 1 159 4 200 6 41 2
55 2 32 -1 -24 -2 -43 -7 -43 -12 0 -4 26 -4 58 0 31 4 67 8 80 8 13 1 20 5
17 11 -4 6 6 7 26 3 22 -4 30 -3 26 5 -5 6 0 8 13 5 25 -7 73 5 66 16 -3 4 6
6 21 3 19 -4 24 -2 18 8 -5 9 -2 10 13 6 12 -4 33 1 55 14 19 11 39 20 43 19
22 -5 220 94 269 134 59 48 39 50 -29 4 -101 -70 -288 -136 -483 -173 -120
-22 -397 -30 -520 -14 -169 21 -554 130 -574 162 -5 7 -9 10 -9 6 0 -5 -9 1
-21 13 -13 13 -28 19 -42 15 -12 -2 -33 2 -47 10 -23 14 -20 14 28 -2 9 -3 -8
8 -38 26 -66 37 -180 111 -180 116 0 2 59 -26 130 -63 72 -36 143 -67 158 -69
15 -2 61 -18 102 -37 346 -159 815 -200 1189 -106 63 16 146 44 185 64 39 19
62 32 51 29 -11 -4 -63 -22 -116 -40 -156 -54 -283 -75 -476 -81 -250 -8 -395
12 -633 89 -105 34 -320 129 -320 142 0 2 17 0 38 -5 20 -4 132 -7 247 -5 300
5 434 35 748 170 21 9 35 21 32 26 -3 5 1 7 9 4 21 -8 78 24 70 39 -4 7 -4 9
1 5 4 -4 22 0 39 9 28 15 134 89 146 102 3 4 23 19 44 35 66 50 142 120 121
113 -12 -4 -4 8 21 32 23 22 39 42 36 45 -5 6 15 10 32 7 5 -1 6 5 3 14 -4 9
-1 15 7 15 15 0 47 36 63 73 7 15 17 27 22 27 5 0 11 9 14 21 3 12 10 18 16
15 5 -4 13 -1 17 5 4 8 3 9 -4 5 -7 -4 -12 -2 -12 3 0 6 3 11 8 11 4 0 16 16
27 35 10 20 24 34 31 31 7 -3 10 2 7 14 -3 13 4 22 24 32 16 8 27 21 27 31 -1
9 2 17 7 17 5 0 9 7 9 15 0 8 4 15 9 15 12 0 54 68 54 86 0 8 4 14 8 14 14 0
60 100 53 112 -4 6 -3 8 3 5 11 -7 51 76 59 120 7 36 36 106 51 121 13 13 17
28 14 46 -1 6 5 26 13 45 8 20 23 65 32 101 8 36 19 70 24 75 10 13 57 205 64
265 4 34 0 27 -13 -27 -27 -102 -31 -107 -27 -28 l5 70 -14 -65 c-16 -75 -18
-117 -7 -122 5 -1 3 -23 -4 -48 -7 -25 -12 -37 -13 -27 -2 41 -19 11 -39 -70
-37 -148 -136 -391 -159 -386 -5 1 -20 -24 -33 -55 -27 -64 -97 -189 -111
-198 -14 -8 -11 23 4 38 6 7 13 20 15 28 2 8 7 17 11 20 4 3 26 41 49 85 135
263 247 608 253 780 1 33 6 62 10 65 5 3 11 30 14 60 2 30 9 80 14 110 5 30 9
98 8 150 -1 93 -1 94 -4 18 -4 -73 -9 -88 -27 -71 -16 16 -68 18 -162 5 -80
-10 -95 -17 -88 -35 2 -7 -6 -27 -20 -45 -16 -22 -26 -29 -29 -20 -3 7 -6 2
-6 -12 -1 -20 -3 -22 -11 -10 -8 12 -10 9 -10 -13 0 -16 -4 -26 -10 -22 -6 4
-10 -5 -10 -20 0 -15 -4 -24 -10 -20 -6 4 -10 108 -10 278 -1 401 -23 596
-103 897 -96 356 -260 669 -462 878 -261 272 -650 409 -1025 361z m443 -56
c61 -25 38 -23 -48 3 -59 18 -68 23 -35 18 25 -4 62 -13 83 -21z m272 -129
c72 -43 155 -105 155 -116 0 -4 -51 27 -112 69 -134 91 -124 83 -112 83 6 0
37 -16 69 -36z m818 -3431 c-13 -37 -52 -90 -102 -141 -64 -65 -76 -67 -24 -4
22 26 55 70 73 97 29 43 48 64 57 65 1 0 -1 -8 -4 -17z m-3003 -124 c41 -16
59 -26 40 -23 -43 8 -150 43 -170 55 -27 18 52 -2 130 -32z m2796 -163 c-43
-46 -103 -106 -134 -132 -31 -26 -73 -64 -93 -84 -65 -65 -392 -231 -451 -230
-7 1 31 18 85 40 204 81 314 157 512 351 82 81 151 146 154 144 2 -2 -31 -42
-73 -89z m-2476 -3 c68 -22 273 -131 311 -164 28 -25 14 -20 -86 30 -66 33
-165 79 -220 102 -156 66 -159 83 -5 32z m2370 -148 c0 -2 -20 -18 -45 -35
-57 -39 -59 -32 -3 9 43 32 48 34 48 26z m-2327 -37 c12 -6 35 -24 52 -41 16
-16 23 -26 15 -22 -26 14 -110 68 -110 72 0 7 22 2 43 -9z m358 -68 c52 -37
242 -180 254 -192 22 -22 -103 59 -184 120 -47 35 -116 82 -153 103 -38 22
-68 42 -68 44 0 8 113 -48 151 -75z m-180 -36 c6 -8 16 -14 21 -14 6 0 24 -12
42 -27 17 -15 24 -24 15 -21 -19 7 -129 77 -129 82 0 9 40 -7 51 -20z m189
-89 c50 -27 37 -34 -16 -9 -33 16 -54 34 -37 34 4 -1 28 -12 53 -25z m150
-112 c30 -13 87 -44 127 -69 39 -24 88 -51 108 -60 48 -20 42 -25 -18 -13 -54
10 -239 106 -289 151 -31 27 -32 29 -8 22 14 -3 50 -17 80 -31z m1270 23 c0
-13 -345 -108 -382 -105 -17 1 16 11 202 63 157 44 180 49 180 42z m-857 -27
c42 -7 77 -17 77 -21 0 -12 -28 -10 -90 7 -30 8 -67 15 -82 15 -15 0 -30 5
-34 12 -5 8 1 9 22 5 16 -3 64 -11 107 -18z m647 12 c-21 -13 -175 -41 -214
-40 -17 0 17 9 76 19 59 10 113 20 120 23 22 9 34 7 18 -2z m-648 -267 c76
-29 181 -67 235 -84 54 -17 80 -28 58 -24 -89 13 -341 105 -532 194 -91 43
-77 45 20 4 45 -20 144 -60 219 -90z m-1007 -239 c0 -74 -9 -110 -24 -101 -6
4 -5 21 1 43 10 37 7 140 -6 178 -3 11 2 4 11 -15 12 -23 18 -58 18 -105z"/>
<path d="M4495 9410 c-66 -10 -229 -60 -221 -67 3 -3 36 4 75 16 116 35 236
52 324 46 91 -6 235 -36 292 -59 20 -9 43 -16 49 -16 25 1 -32 24 -128 52
-113 32 -282 44 -391 28z"/>
<path d="M4200 9315 c-25 -13 -40 -24 -35 -24 6 0 30 11 55 24 25 13 41 24 35
24 -5 0 -30 -11 -55 -24z"/>
<path d="M5280 9175 c8 -11 24 -26 34 -34 10 -8 39 -35 62 -60 24 -25 44 -43
44 -39 0 8 -82 92 -125 128 -22 19 -26 20 -15 5z"/>
<path d="M6156 8780 c38 -52 97 -149 132 -215 35 -66 60 -109 57 -95 -16 63
-195 352 -241 391 -9 7 14 -29 52 -81z"/>
<path d="M10011 8672 c13 -24 30 -49 38 -55 19 -16 -10 38 -40 73 -19 23 -19
22 2 -18z"/>
<path d="M7040 8450 c0 -4 51 -12 113 -18 61 -6 135 -16 162 -21 64 -13 373
-14 428 -2 23 5 68 15 100 21 32 7 56 14 54 16 -7 8 -857 11 -857 4z"/>
<path d="M6356 8425 c70 -201 112 -348 159 -555 34 -149 29 -534 -11 -778 -8
-52 -13 -96 -10 -99 2 -2 7 11 11 29 3 18 17 80 30 138 41 182 42 564 1 705
-29 104 -44 163 -61 239 -9 44 -21 87 -26 95 -4 9 -20 52 -34 96 -14 44 -35
96 -46 115 -11 19 -17 26 -13 15z"/>
<path d="M6998 8423 c-16 -2 -28 -8 -28 -12 0 -19 31 -31 93 -35 36 -2 74 -9
84 -15 14 -9 11 -10 -17 -6 -26 4 -18 -1 32 -22 137 -56 202 -145 234 -318 15
-79 17 -180 18 -797 l1 -708 -25 -1 c-14 0 -34 -4 -45 -8 -29 -12 180 -24 265
-15 80 8 77 24 -5 24 l-50 0 7 392 c4 216 9 431 10 478 l3 85 67 -200 c54
-161 114 -334 161 -465 3 -8 38 -116 78 -240 40 -124 76 -227 81 -228 4 -2 6
-8 3 -13 -3 -4 1 -19 8 -31 8 -13 18 -41 22 -62 5 -30 9 -36 17 -25 7 11 9 9
5 -8 -3 -13 1 -42 8 -65 8 -24 14 -36 15 -28 0 8 7 0 15 -18 8 -18 12 -38 9
-46 -6 -15 35 -150 43 -142 4 4 -7 43 -35 126 -3 8 -2 12 1 9 4 -3 25 -57 48
-120 22 -63 63 -177 90 -254 28 -77 81 -230 119 -340 136 -397 162 -470 173
-484 10 -11 9 -13 -3 -9 -8 2 -22 24 -31 49 -9 24 -24 62 -33 84 l-16 40 6
-35 c12 -70 40 -134 66 -153 37 -28 80 -10 100 41 24 59 36 105 36 138 0 17 7
47 15 67 14 33 26 76 77 287 30 127 77 281 89 293 6 6 11 19 11 29 0 10 14 65
31 121 17 56 35 116 39 132 30 109 47 155 54 148 5 -4 5 2 2 15 -5 13 -3 22 3
22 6 0 11 10 11 22 0 12 18 83 41 157 22 75 46 156 53 181 14 47 86 273 226
710 45 140 92 290 104 333 11 42 23 77 26 77 3 0 5 -37 5 -82 5 -1789 4 -2408
-5 -2441 -7 -22 -32 -58 -63 -90 -53 -53 -76 -63 -189 -83 -21 -3 -38 -10 -38
-15 0 -12 13 -11 115 6 114 20 205 80 232 151 6 18 6 18 -15 1 -24 -22 -24
-26 10 103 18 66 21 106 21 345 0 186 3 259 10 235 5 -19 7 -163 5 -323 -3
-263 -2 -285 12 -255 22 48 23 2721 1 2810 -11 46 -12 62 -1 87 10 25 10 34 0
46 -12 14 -8 48 16 128 3 9 1 17 -4 17 -9 0 -62 -150 -62 -176 0 -9 5 -12 12
-8 8 5 9 2 4 -12 -27 -71 -76 -218 -76 -231 0 -8 5 -11 10 -8 7 4 9 -2 5 -17
-37 -163 -59 -247 -71 -268 -10 -16 -13 -18 -9 -5 8 23 25 125 24 140 -1 20
-19 -37 -54 -172 -19 -76 -51 -185 -69 -243 -55 -173 -65 -211 -59 -226 3 -7
-15 -75 -40 -151 -25 -76 -50 -159 -57 -185 -7 -26 -17 -45 -22 -42 -6 4 -7
-2 -3 -16 5 -15 4 -20 -4 -16 -7 4 -9 1 -5 -8 3 -9 -5 -53 -19 -98 -14 -46
-33 -111 -43 -146 -27 -100 -27 -65 1 46 14 56 25 107 24 114 -1 17 -15 -28
-39 -122 -10 -41 -28 -102 -39 -134 -12 -33 -21 -70 -21 -83 0 -16 -4 -22 -12
-17 -6 4 -8 3 -5 -3 5 -8 -68 -234 -166 -510 l-22 -63 -28 118 c-16 64 -60
212 -97 327 -38 116 -79 246 -91 290 -23 80 -59 155 -45 91 6 -24 5 -26 -6
-15 -8 8 -19 43 -27 79 -7 36 -20 73 -28 82 -9 10 -13 25 -9 34 3 9 1 23 -5
30 -6 7 -8 18 -4 25 5 8 1 9 -14 4 -15 -5 -21 -2 -21 9 0 9 -7 16 -15 16 -8 0
-24 13 -35 28 -12 16 -43 40 -71 53 -27 13 -49 30 -49 37 0 6 -4 12 -9 12 -5
0 -27 18 -50 40 -22 22 -47 40 -55 40 -7 0 -19 7 -26 15 -9 11 -17 12 -31 5
-16 -9 -20 -5 -28 22 -8 29 -9 30 -10 8 -1 -21 -5 -18 -26 23 -14 26 -36 80
-49 120 -51 151 -83 201 -45 72 59 -202 259 -810 563 -1713 69 -206 126 -385
126 -398 0 -14 6 -37 14 -53 9 -17 11 -33 6 -41 -5 -8 -11 -12 -13 -10 -2 3
-12 16 -22 30 -11 16 -15 18 -11 7 14 -43 15 -69 1 -33 -8 22 -13 47 -10 56 6
19 -4 52 -14 46 -3 -2 -6 8 -7 24 -1 15 -10 52 -22 81 -31 80 -458 1382 -687
2094 -47 149 -118 362 -157 475 -38 113 -78 234 -88 268 -21 76 -46 109 -35
48 42 -237 53 -435 58 -1018 3 -375 1 -478 -9 -478 -21 0 -23 23 -23 306 -1
152 -3 279 -6 282 -3 3 -5 -128 -5 -291 l0 -297 -25 0 -26 0 7 523 c3 287 9
542 13 567 8 47 6 325 -3 443 -8 116 -39 187 -120 275 -39 42 -78 63 -128 68
-21 2 -66 11 -98 19 -33 8 -65 17 -72 19 -7 1 -25 1 -40 -1z m277 -104 c45
-40 46 -58 0 -23 -19 14 -52 32 -72 40 l-38 13 37 1 c28 0 46 -8 73 -31z m142
-196 c3 -64 -8 -43 -21 37 -5 35 -4 42 5 33 7 -7 14 -38 16 -70z m2080 -908
l0 -360 -7 280 c-14 572 -14 726 0 535 4 -52 7 -257 7 -455z m-1924 453 c14
-46 27 -108 30 -138 l5 -55 -10 45 c-5 25 -21 85 -34 133 -26 94 -26 97 -20
97 3 0 16 -37 29 -82z m1927 -1225 c0 -233 -4 -372 -10 -362 -8 14 -2 739 7
739 1 0 3 -170 3 -377z m-559 -259 c-11 -33 -20 -52 -20 -44 -1 18 31 111 36
106 2 -2 -5 -30 -16 -62z m-66 -230 c-26 -88 -60 -193 -75 -234 -16 -41 -52
-167 -80 -280 -50 -206 -96 -368 -131 -470 l-19 -55 5 55 c4 52 89 392 136
545 12 39 41 120 64 180 24 61 65 181 91 268 26 86 49 155 51 153 2 -2 -17
-75 -42 -162z m562 -726 c-2 -18 -4 -6 -4 27 0 33 2 48 4 33 2 -15 2 -42 0
-60z"/>
<path d="M9574 8346 c-3 -8 -4 -23 -2 -33 3 -13 7 -9 15 15 12 31 -1 48 -13
18z"/>
<path d="M1907 7499 c-25 -65 -67 -210 -67 -228 1 -9 21 45 45 119 43 129 57
201 22 109z"/>
<path d="M11187 7383 c-21 -42 -107 -298 -107 -319 0 -11 -7 -37 -15 -59 -15
-43 -21 -118 -6 -80 27 67 53 132 58 144 4 9 2 12 -4 8 -6 -4 -3 14 7 40 10
27 33 95 51 153 18 58 36 109 41 115 11 12 10 25 -2 25 -5 0 -16 -12 -23 -27z"/>
<path d="M11210 7329 c0 -24 9 -76 20 -114 11 -38 20 -91 20 -117 0 -35 3 -46
13 -42 10 3 17 -12 26 -53 32 -143 22 -293 -22 -336 -12 -12 -34 -42 -49 -67
-24 -39 -28 -42 -28 -20 -1 44 -16 1 -35 -100 -50 -266 -181 -681 -232 -734
-11 -12 -23 -30 -26 -41 -19 -67 -18 -70 7 -30 36 56 32 27 -4 -35 -18 -30
-45 -107 -65 -185 -20 -73 -62 -210 -95 -305 -35 -100 -53 -167 -45 -160 9 7
50 56 92 109 43 53 114 137 159 186 44 50 98 122 119 160 21 39 62 112 92 163
30 50 52 96 49 101 -3 5 15 46 40 92 25 45 47 95 49 110 2 14 27 63 56 108 28
45 49 84 46 87 -3 3 -13 -7 -23 -23 -10 -15 -27 -39 -38 -53 l-19 -25 6 25 c6
24 5 24 -8 6 -8 -11 -15 -30 -15 -43 0 -47 -138 -333 -148 -305 -2 7 2 52 8
100 7 48 14 96 15 108 4 30 29 76 54 98 12 11 21 23 21 29 0 13 -95 -94 -95
-107 0 -6 -11 -31 -24 -56 -13 -25 -25 -61 -27 -80 -7 -72 -35 -215 -44 -224
-10 -10 -8 10 10 97 14 69 11 78 -11 32 l-20 -40 6 43 c5 39 59 162 89 203 6
8 -2 1 -17 -15 -16 -17 -46 -69 -68 -116 -22 -47 -45 -94 -51 -105 -19 -33
-47 -135 -68 -238 -19 -98 -27 -116 -105 -237 -47 -73 -75 -102 -75 -78 0 8
27 88 61 179 33 90 69 200 80 244 25 103 40 150 100 313 27 73 69 201 94 285
84 283 96 315 137 367 15 19 28 41 28 48 0 7 4 10 10 7 6 -4 7 1 3 11 -4 10
-2 15 4 11 5 -3 22 35 39 91 44 149 41 231 -20 442 -27 91 -53 188 -58 215
-13 65 -18 69 -18 14z m-70 -1549 c-5 -30 -11 -77 -13 -103 -9 -88 -17 -62
-11 33 5 81 18 140 29 128 2 -1 -1 -28 -5 -58z m-110 -205 c-6 -31 -14 -54
-17 -52 -3 3 1 31 8 61 7 31 14 54 16 52 3 -2 -1 -30 -7 -61z m99 23 c-44 -86
-145 -236 -148 -222 -2 14 -5 15 -13 3 -8 -12 -9 -11 -5 1 2 8 9 14 15 13 6
-2 43 49 83 112 68 107 95 145 68 93z"/>
<path d="M6875 7146 c-53 -17 -127 -69 -165 -114 -49 -60 -71 -115 -77 -196
-8 -99 9 -176 62 -282 l43 -85 -77 -59 c-116 -89 -182 -164 -234 -266 -93
-184 -80 -403 32 -522 14 -15 24 -31 23 -35 -1 -5 2 -6 7 -3 5 4 11 3 13 -1 6
-15 96 -83 123 -93 38 -14 44 -12 15 6 -22 13 -23 14 -3 9 12 -3 50 -12 85
-20 52 -11 57 -14 28 -15 -71 -3 3 -19 91 -19 93 -1 234 33 208 50 -9 6 -10 9
-2 9 6 0 20 3 30 6 15 5 15 4 3 -5 -25 -18 4 -12 30 6 14 9 27 19 30 22 3 3
25 22 50 40 25 19 49 41 53 48 13 21 34 15 57 -17 12 -16 26 -30 32 -30 6 0 5
7 -3 18 -13 15 -12 16 3 3 10 -7 15 -17 13 -22 -3 -4 12 -25 32 -46 l38 -37
-1 -191 c-1 -214 -12 -265 -67 -323 -42 -45 -115 -81 -188 -94 -32 -5 -59 -14
-59 -20 0 -5 8 -7 18 -5 9 3 39 8 67 12 27 4 67 16 88 27 22 11 45 17 52 14
19 -7 50 31 81 99 21 46 29 82 34 155 4 52 8 79 10 60 l2 -35 9 40 c4 22 8 77
8 123 1 46 5 81 9 78 13 -8 2 -406 -12 -440 -39 -93 -135 -140 -291 -140 -70
-1 -91 -4 -96 -16 -11 -25 0 -30 61 -30 32 0 61 -4 64 -8 4 -7 364 -9 638 -3
64 1 88 17 81 54 -4 21 -12 26 -51 32 -60 8 -131 29 -169 48 -43 22 -100 89
-114 134 -15 48 -24 426 -9 402 11 -19 59 -13 124 15 38 16 123 92 114 101 -3
3 -23 -4 -46 -15 -74 -36 -179 -22 -260 34 -65 45 -167 195 -146 216 7 7 20
-4 42 -39 91 -140 262 -230 360 -189 32 13 31 13 -45 13 -62 1 -88 6 -126 25
l-48 24 2 297 c0 164 -2 302 -5 307 -7 12 31 121 47 137 7 7 7 5 2 -5 -5 -8 3
-5 16 6 13 12 45 31 72 42 30 14 47 27 47 38 0 14 -3 15 -12 6 -7 -7 -27 -12
-46 -12 -47 0 -109 -36 -117 -69 -11 -49 -27 -81 -38 -74 -6 4 -8 -2 -5 -15 4
-12 3 -20 -2 -17 -4 3 -11 -12 -15 -33 -10 -55 -84 -279 -113 -342 -14 -30
-24 -61 -23 -67 1 -7 -3 -13 -8 -13 -24 0 -69 58 -207 265 -81 121 -150 219
-154 218 -4 -1 -7 5 -6 15 0 9 -5 16 -12 14 -8 -1 -11 2 -7 8 10 17 -6 34 -17
19 -7 -11 -8 -9 -4 4 4 11 -2 31 -14 47 -11 15 -20 32 -20 38 0 5 -8 16 -17
23 -9 8 -29 34 -45 58 -15 25 -28 41 -28 35 0 -5 7 -20 16 -32 8 -12 13 -28
11 -35 -3 -7 -6 -5 -6 6 -1 9 -5 17 -10 17 -5 0 -13 10 -16 21 -5 16 -9 18
-15 9 -6 -9 -12 -4 -24 16 -24 45 -19 21 9 -42 30 -67 31 -85 8 -104 -10 -8
-42 -35 -72 -60 -57 -48 -125 -137 -160 -210 -29 -59 -49 -191 -34 -222 6 -13
18 -52 27 -87 31 -119 96 -199 201 -248 52 -24 72 -28 150 -28 82 0 97 3 158
33 37 19 94 59 128 89 64 60 85 65 48 11 -96 -140 -269 -212 -431 -179 -35 7
-75 14 -91 15 -15 2 -30 6 -35 11 -4 4 4 5 18 1 23 -6 24 -6 5 6 -11 7 -45 38
-76 69 -64 63 -99 139 -107 231 -2 35 -8 55 -14 52 -6 -4 -14 -1 -19 7 -6 10
-11 6 -18 -14 -12 -31 -22 -36 -14 -7 3 11 0 20 -6 20 -7 0 -11 -23 -11 -62 0
-45 -3 -59 -10 -48 -25 38 -3 266 26 283 8 4 14 13 14 18 0 6 16 37 35 70 19
32 30 59 24 59 -6 0 -7 5 -4 10 4 6 10 8 15 5 4 -3 18 10 29 28 20 32 89 91
179 151 49 33 51 46 16 112 -51 98 -76 184 -81 287 -4 65 -2 97 5 97 6 0 15
15 21 33 15 45 95 119 158 145 99 42 224 25 297 -39 54 -48 79 -105 79 -184 0
-57 -4 -66 -54 -139 -64 -95 -94 -125 -183 -190 -73 -54 -84 -65 -69 -75 6 -3
98 -138 206 -299 107 -161 198 -289 201 -284 19 32 81 212 106 313 50 197 41
230 -70 253 -36 7 -67 9 -68 4 -7 -16 18 -36 53 -42 44 -9 75 -51 75 -103 0
-73 -92 -388 -111 -381 -8 3 -327 477 -350 519 -8 15 -1 22 38 42 27 13 47 30
45 36 -1 7 2 10 7 6 11 -6 51 15 51 28 0 4 -5 5 -12 1 -7 -4 -8 -3 -4 5 4 6
11 9 16 6 4 -3 31 21 59 52 114 129 121 315 15 427 -66 69 -222 105 -319 72z
m321 -442 c-10 -14 -20 -23 -23 -21 -2 3 3 17 13 31 9 15 19 24 22 22 2 -3 -3
-17 -12 -32z m-281 -374 c14 -28 29 -49 33 -46 4 2 8 -7 8 -20 2 -22 0 -21
-20 9 -42 62 -65 107 -56 107 5 0 21 -23 35 -50z m-62 -50 c32 -49 76 -113 97
-142 22 -29 40 -56 40 -61 0 -11 42 -70 58 -80 7 -5 10 -12 7 -17 -3 -5 26
-55 65 -110 38 -55 70 -106 70 -113 0 -24 -75 -86 -143 -118 -123 -57 -270
-37 -369 51 -116 102 -142 313 -59 486 25 51 151 194 171 194 3 0 31 -41 63
-90z m679 -338 c-1 -141 -2 -261 -2 -265 0 -5 -17 9 -39 32 -58 60 -62 114
-20 276 9 39 25 90 33 114 9 24 16 59 16 79 0 19 3 32 7 29 3 -4 6 -123 5
-265z m-112 -109 c-1 -31 -3 -35 -11 -20 -6 9 -7 26 -4 37 10 30 15 24 15 -17z
m-984 -98 c14 -34 18 -52 9 -44 -9 9 -35 79 -30 79 3 0 13 -16 21 -35z m1028
-180 c32 -16 85 -31 119 -35 l62 -7 -57 -2 c-90 -2 -180 46 -265 139 -41 46
-24 37 30 -15 29 -28 79 -64 111 -80z m-870 16 c-7 -7 -87 53 -92 68 -2 7 18
-4 45 -25 28 -22 49 -41 47 -43z m315 -67 c8 -7 -144 -2 -169 6 -14 4 18 5 70
2 52 -2 97 -6 99 -8z m538 -136 c-2 -18 -4 -4 -4 32 0 36 2 50 4 33 2 -18 2
-48 0 -65z m93 48 c-22 -59 -3 -305 29 -377 47 -103 157 -169 284 -169 46 0
73 -15 40 -22 -35 -7 -179 12 -245 32 -61 19 -70 24 -89 61 -35 69 -49 162
-49 332 0 112 4 162 13 172 18 20 29 2 17 -29z m240 -595 c36 -3 -62 -6 -217
-6 -156 0 -283 3 -283 8 0 8 406 7 500 -2z"/>
<path d="M7502 5988 c-1 -31 -5 -65 -8 -75 -5 -14 -4 -15 5 -7 8 7 11 34 8 75
l-3 64 -2 -57z"/>
<path d="M6894 7091 c-23 -10 -54 -36 -70 -57 -25 -33 -29 -47 -32 -118 -3
-54 2 -103 13 -146 18 -71 91 -220 107 -220 38 0 142 87 195 163 35 51 43 72
54 144 12 83 12 83 -17 140 -25 50 -37 62 -84 85 -65 32 -110 35 -166 9z m143
-56 c74 -50 84 -71 85 -175 1 -101 -56 -198 -153 -261 -57 -36 -52 -38 -95 45
-85 162 -74 338 25 403 47 32 78 29 138 -12z"/>
<path d="M10573 7025 c-37 -16 -42 -29 -16 -39 11 -4 22 -1 29 8 18 25 60 19
83 -10 15 -19 21 -22 21 -11 0 16 -37 57 -51 57 -4 0 -13 2 -21 5 -7 2 -28 -2
-45 -10z"/>
<path d="M11101 6821 c-2 -26 23 -131 31 -131 11 0 10 13 -6 62 -8 24 -16 52
-19 63 -3 11 -5 14 -6 6z"/>
<path d="M11493 6239 c-38 -39 -90 -86 -118 -104 -51 -34 -126 -105 -111 -105
5 0 32 20 60 43 28 24 62 47 76 50 14 4 54 41 90 81 35 41 66 73 67 72 2 -2
-11 -33 -28 -70 -17 -36 -33 -82 -34 -102 -9 -89 -65 -282 -111 -379 -36 -77
-102 -144 -125 -129 -7 4 -9 3 -5 -4 6 -10 -30 -28 -47 -24 -4 1 -6 -1 -6 -5
3 -20 -2 -26 -11 -13 -8 13 -10 12 -10 -3 0 -9 -3 -16 -8 -15 -9 3 -62 -37
-62 -46 0 -4 -9 -16 -20 -28 -11 -12 -20 -25 -20 -29 0 -14 32 -19 52 -8 14 8
18 8 14 0 -4 -6 -23 -18 -43 -27 -46 -23 -149 -125 -245 -244 -42 -52 -102
-126 -132 -164 -31 -38 -56 -72 -56 -75 0 -4 -30 -52 -66 -106 -36 -55 -82
-131 -101 -170 -20 -38 -46 -83 -58 -100 -13 -16 -35 -55 -49 -85 -15 -30 -36
-66 -48 -80 -14 -18 -12 -11 7 23 15 27 25 51 22 53 -3 3 -23 -30 -44 -73 -22
-43 -58 -107 -80 -143 -22 -36 -58 -101 -81 -145 -37 -70 -116 -171 -214 -272
-18 -18 -32 -42 -33 -53 -1 -12 -36 -56 -77 -98 -42 -42 -115 -126 -162 -185
-112 -140 -324 -375 -345 -382 -9 -2 -34 -21 -56 -40 -69 -62 -105 -88 -112
-81 -8 8 -103 -83 -103 -99 -1 -15 -132 -109 -261 -186 -63 -37 -143 -85 -179
-107 -36 -21 -102 -59 -147 -82 -46 -24 -81 -46 -78 -48 2 -2 52 19 112 48 59
28 116 52 127 53 10 1 25 12 33 24 16 24 39 30 45 13 2 -5 59 23 128 63 158
91 185 104 251 118 30 6 73 15 96 20 23 5 67 9 97 9 35 0 56 4 56 11 0 13
-102 6 -202 -15 -35 -7 -65 -12 -67 -10 -15 13 188 160 280 204 91 42 209 70
298 70 163 0 236 16 358 76 62 31 118 63 125 72 11 13 10 15 -5 9 -11 -4 -16
-3 -12 4 4 6 13 8 21 5 8 -3 22 -2 32 3 44 23 79 34 97 32 15 -1 17 0 7 7 -15
10 17 23 53 21 13 -1 10 -4 -10 -9 -24 -7 -17 -8 30 -8 33 1 70 -2 83 -6 44
-14 13 37 -34 55 -25 9 -184 -25 -254 -55 -39 -16 -84 -22 -237 -32 -57 -4
-103 -10 -103 -14 0 -9 74 -37 121 -45 25 -5 40 -2 50 7 8 8 35 20 61 26 59
15 59 15 52 -2 -3 -8 -11 -13 -18 -10 -7 3 -42 -6 -77 -19 -49 -19 -70 -22
-89 -15 -14 5 -69 12 -122 15 -54 3 -98 9 -98 13 0 10 93 55 175 85 39 14 79
30 90 35 11 6 47 17 80 25 l60 15 -69 -5 c-38 -3 -84 -12 -102 -20 -19 -8 -58
-15 -87 -16 -28 -1 -65 -8 -82 -14 -75 -31 -82 -28 -35 15 25 23 59 49 75 57
17 9 32 19 35 22 8 10 119 57 168 72 34 10 48 10 63 1 10 -7 42 -12 70 -12 41
0 70 -10 151 -49 55 -28 95 -44 88 -36 -6 7 -54 35 -107 62 l-95 48 -122 0
c-127 0 -172 -10 -280 -61 -27 -13 -52 -22 -55 -19 -3 3 18 26 47 51 29 25 50
49 47 54 -3 5 0 12 6 16 8 4 9 3 5 -4 -12 -19 3 -14 39 14 55 42 136 88 208
118 37 16 67 33 67 38 0 5 10 6 21 3 14 -5 19 -4 15 4 -5 7 -1 8 9 4 10 -3 20
-1 24 6 19 29 288 37 359 10 17 -7 28 -6 32 1 9 14 146 -33 143 -48 -2 -6 3
-9 11 -6 7 3 23 -6 33 -20 11 -14 23 -23 25 -20 3 2 33 -25 67 -61 104 -111
141 -210 141 -373 0 -223 -115 -390 -297 -432 -83 -19 -179 13 -208 70 -15 29
-15 32 4 57 12 14 18 30 14 37 -5 7 -9 5 -11 -5 -2 -10 -12 -19 -23 -22 -16
-4 -19 -11 -13 -34 11 -45 31 -68 81 -94 106 -54 253 -22 347 76 55 56 113
169 122 237 4 27 10 44 14 38 21 -34 -55 -213 -120 -284 -108 -117 -309 -151
-405 -68 -27 23 -75 98 -75 117 0 8 -4 15 -10 15 -5 0 -10 5 -10 12 0 6 3 8 7
5 3 -4 13 2 21 14 10 15 21 19 39 14 16 -4 22 -2 18 5 -11 18 -55 10 -81 -15
-20 -20 -24 -34 -23 -69 2 -27 7 -42 13 -39 5 4 7 -1 3 -12 -20 -51 107 -134
218 -142 100 -9 238 40 297 104 l23 26 -22 -12 c-13 -6 -23 -15 -23 -19 0 -17
-130 -72 -194 -82 -73 -12 -119 -7 -182 21 -44 18 -114 75 -114 91 0 6 10 0
23 -14 116 -125 332 -119 481 13 28 24 47 36 43 27 -9 -25 0 -22 14 3 8 15 8
19 0 15 -18 -11 -13 10 6 25 11 10 14 10 9 2 -4 -8 -2 -13 4 -13 7 0 9 7 6 16
-8 22 4 40 16 23 7 -10 8 -9 4 6 -3 11 -1 27 4 35 9 13 10 13 10 0 1 -8 6 -4
11 9 5 13 7 32 4 42 -4 11 -2 19 3 19 5 0 17 41 27 92 29 152 2 290 -85 424
-42 64 -151 174 -173 174 -6 0 2 -10 19 -23 65 -50 120 -116 160 -195 51 -99
65 -157 63 -260 -1 -42 -4 -63 -6 -47 -29 221 -101 366 -227 462 -130 97 -247
136 -416 136 -192 0 -356 -52 -523 -165 -63 -43 -89 -47 -35 -6 156 118 356
189 583 208 l90 7 -90 2 c-120 2 -250 -23 -365 -71 -118 -49 -130 -53 -130
-41 0 5 47 61 105 126 117 129 130 158 22 45 -75 -79 -63 -59 17 29 30 32 55
52 64 48 12 -4 63 27 101 63 55 52 161 79 364 91 193 12 273 33 378 99 52 34
170 137 183 160 5 10 -9 0 -31 -20 -21 -21 -43 -38 -48 -38 -6 0 10 18 34 41
24 22 49 38 57 35 7 -3 16 0 20 6 4 7 3 8 -4 4 -7 -4 -12 -5 -12 -2 0 6 79 49
95 51 6 1 20 3 33 3 13 1 20 7 17 12 -4 6 15 10 49 10 31 0 56 5 56 10 0 6
-27 10 -61 10 -63 0 -65 -1 -279 -100 -103 -48 -221 -80 -297 -80 -45 0 -83
-9 -83 -20 0 -4 45 -10 100 -13 109 -7 200 12 241 49 10 9 21 15 24 12 3 -3
-20 -22 -51 -42 l-56 -37 -171 -9 c-95 -5 -189 -14 -210 -20 -65 -19 -52 -5
25 29 40 17 80 36 88 41 41 26 233 114 288 132 78 25 76 33 -3 13 -193 -51
-602 -260 -765 -392 -83 -66 -151 -108 -90 -55 19 17 38 31 42 32 4 0 28 18
54 41 86 74 147 113 306 194 159 81 204 113 81 56 -46 -21 -59 -24 -42 -11 15
11 48 46 74 77 l47 58 -51 -55 c-50 -54 -62 -59 -40 -17 19 35 159 167 178
167 10 0 2 -12 -24 -35 -22 -19 -37 -34 -33 -35 5 0 25 16 47 35 43 39 95 61
168 69 38 5 43 4 24 -4 -36 -16 -21 -20 26 -8 34 8 69 6 175 -11 73 -12 137
-26 142 -31 6 -6 24 -10 41 -9 49 1 -142 59 -197 59 -26 0 -50 5 -54 11 -12
20 -227 5 -309 -21 -161 -50 -317 -169 -411 -310 -36 -55 -172 -186 -205 -198
-16 -6 33 69 105 162 38 50 69 97 69 105 0 9 10 27 22 41 34 38 105 138 105
147 -1 4 -12 -5 -25 -22 -14 -16 -25 -25 -25 -19 0 14 45 56 52 49 3 -4 15 6
27 21 39 49 120 134 128 134 5 0 23 13 40 29 18 16 35 26 39 22 4 -3 5 -1 1 4
-7 14 135 95 238 136 86 34 200 58 281 59 44 0 53 -3 57 -20 6 -24 71 -54 102
-46 58 15 100 84 60 100 -9 3 -15 0 -15 -8 0 -12 -9 -12 -56 -1 -39 9 -75 10
-118 4 -33 -4 -95 -13 -136 -19 -104 -15 -183 -41 -286 -95 -110 -58 -175
-106 -282 -210 -96 -93 -133 -114 -52 -30 74 77 200 178 283 227 38 22 66 42
63 45 -9 10 -125 -60 -204 -123 -78 -62 -102 -75 -102 -53 0 5 5 7 12 3 8 -5
9 -2 5 10 -4 10 -3 15 3 11 6 -4 13 7 16 24 4 17 10 29 14 26 4 -3 11 2 14 11
4 10 2 13 -7 8 -8 -5 -8 -2 2 9 7 9 17 14 22 11 5 -3 9 -2 10 3 0 4 2 17 3 28
3 25 75 133 116 175 16 17 27 30 24 30 -6 0 18 28 120 134 47 49 83 93 81 97
-3 4 12 19 33 35 l37 27 -30 -33 c-31 -34 -17 -32 22 3 12 11 19 26 16 34 -5
12 -1 14 15 9 11 -4 23 -2 27 3 3 7 0 8 -9 5 -31 -12 -15 6 34 39 73 49 187
161 210 207 11 22 23 40 25 40 11 0 4 -19 -20 -55 -15 -20 -24 -39 -21 -42 9
-10 67 88 64 110 -2 14 2 21 10 19 8 -1 11 2 7 8 -4 6 6 28 21 48 16 20 20 31
11 23 -22 -18 -22 -1 0 42 18 35 43 122 75 262 11 50 28 117 38 150 41 141 38
144 -57 44z m-303 -749 c-25 -22 -49 -40 -55 -40 -14 1 75 80 89 80 6 0 -9
-18 -34 -40z m258 -607 c-17 -20 -45 -25 -88 -13 -57 15 -43 26 33 25 50 0 63
-3 55 -12z m-758 -407 c0 -1 -28 -27 -62 -57 -60 -52 -62 -52 -42 -19 23 41
104 100 104 76z m400 -183 c0 -5 -17 -21 -38 -38 -37 -29 -26 -7 13 27 23 20
25 21 25 11z m-159 -87 c-9 -11 -9 -15 1 -20 7 -3 3 -3 -9 0 -12 3 -44 -3 -70
-12 -31 -11 -85 -18 -153 -19 -60 -1 -94 1 -80 5 14 5 46 8 72 9 26 1 59 6 75
12 45 17 126 38 152 38 19 1 21 -2 12 -13z m-511 -81 c-46 -18 -61 -18 -30 0
14 8 34 14 45 14 13 0 8 -5 -15 -14z m-489 -402 c-5 -10 -22 -29 -37 -43 -26
-23 -25 -22 5 18 34 43 49 55 32 25z m-266 -393 c-9 -14 -65 -42 -65 -33 0 9
50 42 63 43 5 0 5 -5 2 -10z m-146 -156 c-48 -25 -63 -29 -54 -14 10 16 79 49
89 42 5 -3 -11 -15 -35 -28z m536 7 c-9 -16 -111 -71 -129 -71 -10 0 16 18 56
39 86 46 81 44 73 32z m-460 -41 c-11 -5 -36 -8 -55 -8 -32 0 -33 1 -10 8 14
4 39 8 55 8 25 1 27 -1 10 -8z m286 -16 c-19 -14 -48 -16 -159 -15 -149 1
-230 -13 -352 -62 -35 -15 -65 -25 -67 -23 -8 7 50 55 80 66 17 6 47 18 65 26
46 20 61 17 32 -6 l-25 -20 30 11 c29 10 268 35 370 38 48 1 49 1 26 -15z
m-854 -339 c-15 -14 -33 -25 -39 -25 -14 0 -6 8 29 31 39 25 43 22 10 -6z"/>
<path d="M3280 6206 c0 -8 63 -36 80 -36 22 0 8 18 -17 22 -16 3 -36 9 -45 13
-10 4 -18 4 -18 1z"/>
<path d="M11459 6139 c-13 -22 -39 -59 -57 -82 -37 -45 -77 -117 -65 -116 10
0 157 228 151 234 -2 3 -15 -14 -29 -36z"/>
<path d="M11247 5992 c-36 -37 -57 -93 -58 -152 -2 -62 5 -71 25 -33 15 30 67
205 62 210 -1 2 -14 -10 -29 -25z"/>
<path d="M2570 5851 c19 -10 46 -21 60 -25 14 -3 3 5 -25 18 -58 29 -87 34
-35 7z"/>
<path d="M8111 5867 c-1 -4 6 -24 15 -45 9 -20 29 -75 44 -122 113 -341 233
-687 242 -695 8 -7 9 -4 3 10 -4 11 -24 72 -46 135 -155 464 -256 744 -258
717z"/>
<path d="M3663 5848 c10 -28 71 -121 190 -288 164 -229 187 -254 249 -275 29
-9 68 -24 86 -32 18 -9 36 -13 39 -9 3 3 -1 6 -9 6 -9 0 -21 6 -27 14 -10 12
-8 15 10 18 19 2 4 15 -71 66 -52 35 -109 73 -127 85 -18 12 -32 28 -33 36 0
8 -24 41 -53 75 -30 34 -64 74 -78 90 -13 16 -37 44 -52 62 -15 18 -51 63 -79
101 -28 37 -48 60 -45 51z m433 -513 c49 -35 49 -35 18 -35 -21 0 -40 10 -64
35 -22 23 -29 35 -19 35 9 0 38 -16 65 -35z"/>
<path d="M2660 5816 c0 -2 27 -13 60 -24 64 -22 81 -21 28 1 -39 16 -88 29
-88 23z"/>
<path d="M3550 5797 c0 -16 24 -57 37 -61 9 -4 6 6 -8 27 -29 42 -29 41 -29
34z"/>
<path d="M10233 5735 c8 -17 24 -39 36 -49 11 -10 18 -22 16 -26 -3 -4 5 -19
16 -31 l21 -24 -16 28 c-9 15 -13 27 -9 27 25 0 115 -76 148 -124 41 -59 57
-69 30 -17 -23 45 -95 121 -130 136 -16 7 -52 35 -79 61 -41 42 -46 45 -33 19z"/>
<path d="M10710 5759 c3 -25 39 -149 39 -134 1 23 -25 124 -33 133 -3 3 -6 3
-6 1z"/>
<path d="M2850 5685 c0 -3 8 -20 17 -38 10 -18 22 -50 28 -72 6 -22 16 -39 22
-38 6 1 9 -6 6 -15 -5 -19 51 -102 68 -102 21 0 2 53 -51 145 -45 78 -90 138
-90 120z"/>
<path d="M3625 5640 c-3 -5 -2 -10 4 -10 8 0 24 -32 26 -52 0 -9 95 -70 95
-62 0 9 -91 118 -105 127 -8 4 -16 3 -20 -3z"/>
<path d="M8766 5469 c-9 -29 -14 -54 -12 -56 2 -3 11 19 20 48 8 29 13 55 11
57 -2 2 -11 -20 -19 -49z"/>
<path d="M11220 5439 c-36 -34 -56 -55 -45 -48 26 18 122 109 115 109 -3 0
-35 -28 -70 -61z"/>
<path d="M10504 5431 c3 -18 6 -37 6 -42 0 -5 5 -9 11 -9 14 0 4 60 -13 75 -8
7 -9 1 -4 -24z"/>
<path d="M1752 5385 c0 -11 4 -33 8 -50 7 -27 8 -27 8 -5 0 14 -4 36 -8 50 -6
20 -8 21 -8 5z"/>
<path d="M10530 5267 c0 -60 -7 -142 -16 -183 -20 -99 -11 -105 18 -13 26 86
33 268 11 291 -10 10 -13 -9 -13 -95z"/>
<path d="M1771 5292 c-2 -21 44 -183 114 -402 44 -136 167 -440 179 -440 5 0
-18 64 -34 92 -10 18 -84 209 -118 303 -21 58 -93 294 -125 405 -8 30 -16 49
-16 42z"/>
<path d="M4263 5231 c15 -5 58 -12 95 -16 55 -5 63 -4 47 6 -10 7 -53 14 -95
16 -55 2 -68 0 -47 -6z"/>
<path d="M9768 5080 c-4 -14 -7 -50 -7 -80 l1 -55 9 40 c12 49 9 135 -3 95z"/>
<path d="M11303 4996 c-21 -18 -45 -36 -53 -39 -9 -3 -4 -6 12 -6 14 -1 39 10
55 23 31 26 91 42 109 29 6 -5 16 -18 23 -30 15 -29 31 -30 24 -3 -9 33 -52
60 -94 60 -30 0 -48 -8 -76 -34z"/>
<path d="M10957 4906 c-33 -14 -62 -28 -65 -32 -4 -4 2 -4 13 1 11 4 52 18 90
31 40 13 59 23 45 23 -14 0 -51 -10 -83 -23z"/>
<path d="M11226 4489 c-32 -5 -62 -12 -65 -15 -9 -9 111 6 129 17 17 10 16 10
-64 -2z"/>
<path d="M4964 4060 c-133 -43 -203 -148 -191 -283 11 -123 79 -195 237 -251
126 -44 246 -107 264 -137 33 -56 13 -144 -43 -191 -110 -93 -358 -31 -428
106 -19 37 -31 46 -51 39 -12 -5 -13 -20 -8 -82 3 -42 9 -86 12 -98 16 -59
259 -109 409 -84 76 13 162 51 157 71 -1 6 2 9 7 6 12 -8 73 62 66 75 -4 5 -2
9 3 9 25 0 40 162 21 221 -31 91 -90 134 -295 214 -120 47 -148 62 -179 97
-35 38 -37 44 -33 93 5 58 36 107 78 123 55 21 182 22 202 1 8 -8 36 -27 62
-44 34 -21 53 -43 69 -77 22 -47 39 -59 53 -36 4 6 -1 17 -11 25 -14 9 -15 13
-4 13 11 0 13 14 11 67 -2 38 -8 73 -14 78 -7 7 -9 -13 -5 -64 4 -72 4 -74
-10 -45 -44 85 -135 134 -251 134 -113 0 -195 -54 -216 -142 -3 -15 -2 -30 4
-33 5 -3 10 -16 10 -28 0 -65 60 -112 225 -176 146 -57 198 -84 238 -125 42
-42 62 -108 51 -168 -4 -25 -9 -35 -12 -24 -3 15 -6 16 -13 5 -7 -11 -9 -9 -9
8 0 12 -3 28 -6 37 -13 35 -22 12 -25 -68 -4 -81 -5 -86 -39 -121 -56 -59
-103 -78 -200 -83 -69 -3 -97 0 -150 18 -116 39 -198 120 -188 185 3 16 8 12
25 -21 31 -59 114 -129 175 -150 170 -56 334 13 352 148 4 28 9 63 12 78 4 19
-1 35 -21 58 -14 17 -24 36 -21 41 4 5 2 12 -4 16 -6 4 -8 11 -5 16 7 10 -8
12 -18 2 -4 -3 1 -13 11 -21 9 -8 6 -7 -8 2 -40 26 -122 63 -178 80 -29 8 -62
22 -74 30 -25 18 -17 21 13 6 10 -6 19 -7 19 -2 0 5 -20 17 -45 26 -25 10 -45
21 -45 25 0 4 -9 7 -20 7 -27 0 -26 -3 18 -25 44 -24 35 -28 -11 -5 -121 61
-172 211 -104 311 72 107 265 148 433 93 19 -7 42 -10 51 -8 39 9 -97 40 -192
44 -82 3 -111 1 -161 -16z m-14 -457 c3 -3 -13 4 -35 15 -22 11 -49 30 -60 42
-13 15 -1 10 35 -14 30 -21 57 -40 60 -43z m-50 -489 c39 -11 41 -13 15 -13
-16 0 -46 9 -65 20 -19 11 -26 17 -15 13 11 -4 40 -13 65 -20z"/>
<path d="M7348 4063 c-9 -10 -55 -115 -103 -233 -78 -195 -151 -371 -222 -535
-42 -99 -60 -122 -108 -141 -62 -23 -61 -49 1 -58 107 -14 274 -3 274 19 0 7
-21 15 -51 18 -29 4 -59 13 -69 22 -9 8 -22 15 -29 15 -8 0 -9 5 -1 19 18 34
11 37 -9 5 -19 -31 -83 -65 -119 -63 -9 0 2 7 25 15 62 23 64 27 290 584 134
332 132 327 156 334 27 7 31 3 55 -64 26 -72 96 -249 217 -549 99 -242 132
-301 172 -301 13 0 10 6 -14 21 -24 15 -40 40 -67 107 -19 48 -69 170 -111
272 -42 102 -98 241 -126 310 -75 187 -90 214 -120 218 -15 2 -32 -4 -41 -15z"/>
<path d="M5960 4049 c25 -4 119 -6 210 -3 245 9 354 -20 420 -113 31 -42 32
-47 29 -126 -3 -60 -9 -89 -23 -107 l-18 -25 5 25 c5 23 5 24 -6 5 -23 -39
-114 -120 -162 -144 -58 -29 -153 -38 -250 -22 -76 11 -84 8 -86 -39 0 -14 -3
-19 -6 -12 -15 37 -23 -2 -23 -115 0 -197 -17 -233 -112 -239 -60 -3 -73 -24
-23 -35 39 -8 281 -9 319 0 51 11 41 28 -19 33 -78 7 -108 31 -117 94 -12 93
-9 306 5 302 8 -3 13 -48 17 -161 4 -138 7 -159 26 -184 12 -15 30 -29 40 -31
16 -2 15 0 -6 17 -24 19 -25 24 -28 170 l-3 151 84 0 c117 0 226 22 279 57 24
15 45 32 47 37 2 5 12 17 22 27 11 11 19 26 19 35 0 8 5 12 10 9 6 -4 9 -3 8
2 -1 4 4 26 12 48 36 105 0 234 -80 290 -80 56 -103 59 -380 61 -169 2 -240
-1 -210 -7z"/>
<path d="M5880 4037 c0 -9 20 -23 46 -33 30 -11 49 -26 55 -41 5 -14 9 -187 9
-386 0 -387 -2 -399 -50 -425 l-25 -14 30 7 c17 3 41 17 55 31 l25 24 3 386
c3 436 5 425 -70 444 -24 6 -51 13 -60 16 -12 3 -18 0 -18 -9z"/>
<path d="M8990 4014 c-6 -14 -14 -34 -20 -44 -8 -15 -6 -18 8 -16 12 2 19 15
23 44 6 48 3 53 -11 16z"/>
<path d="M6154 4021 c-33 -14 -35 -32 -33 -243 l2 -197 39 -15 c75 -30 212
-12 272 35 41 32 72 88 86 152 23 111 -39 228 -135 257 -51 15 -204 23 -231
11z m186 -44 c103 -39 140 -93 140 -205 0 -83 -20 -126 -76 -165 -45 -32 -131
-47 -209 -37 l-40 5 -3 205 -2 205 77 3 c46 1 92 -3 113 -11z"/>
<path d="M7337 3916 c-8 -8 -27 -45 -42 -83 -80 -195 -98 -240 -111 -267 -10
-20 -11 -34 -3 -47 9 -17 23 -19 159 -19 138 0 157 3 199 27 2 2 -3 11 -11 20
-15 18 -37 71 -81 198 -36 102 -74 185 -86 185 -5 0 -16 -6 -24 -14z m26 -104
c34 -72 115 -287 110 -294 -6 -10 -260 -10 -266 0 -6 8 123 332 132 332 3 0
14 -17 24 -38z"/>
<path d="M8937 3893 c-2 -5 2 -19 9 -33 8 -14 14 -20 14 -15 0 6 3 20 6 33 5
16 2 22 -9 22 -9 0 -18 -3 -20 -7z"/>
<path d="M8936 3798 c-9 -36 -7 -78 4 -78 6 0 10 23 10 50 0 54 -4 63 -14 28z"/>
<path d="M9870 3738 c-44 -54 -44 -64 -1 -23 39 37 50 56 34 54 -5 0 -19 -14
-33 -31z"/>
<path d="M10636 3686 c50 -22 82 -27 39 -7 -22 11 -47 20 -55 20 -8 0 -1 -6
16 -13z"/>
<path d="M5049 3604 c-12 -15 -11 -16 9 -10 12 4 22 3 22 -1 0 -9 114 -51 116
-43 1 3 11 -4 23 -14 12 -11 23 -17 26 -14 3 2 -6 14 -20 26 -14 12 -25 18
-25 13 0 -14 -41 0 -47 15 -3 8 -11 14 -19 14 -8 0 -14 5 -14 11 0 6 -7 9 -15
6 -8 -4 -17 -2 -20 3 -9 14 -21 12 -36 -6z"/>
<path d="M7335 3480 l-190 -5 -47 -118 -47 -118 22 -42 c13 -24 31 -43 42 -45
18 -3 17 -2 -3 13 -20 15 -23 24 -20 64 3 35 53 169 74 200 2 2 78 3 169 3
128 0 170 -3 180 -13 19 -20 85 -195 85 -224 0 -21 -9 -29 -45 -45 -94 -40
-48 -60 146 -60 141 0 179 6 179 30 0 13 -6 16 -23 13 -12 -3 -43 3 -67 12
-25 9 -58 20 -75 25 -23 6 -25 8 -8 9 20 1 21 2 7 31 -9 17 -20 27 -28 24 -9
-4 -20 10 -31 40 -15 39 -16 48 -4 63 13 16 12 17 -3 4 -16 -12 -18 -11 -19 5
0 11 -3 14 -5 8 -3 -6 7 -42 21 -79 13 -37 22 -72 19 -77 -4 -6 0 -14 7 -19
11 -7 10 -9 -4 -9 -11 0 -30 -9 -44 -20 -14 -11 -39 -20 -57 -19 l-31 1 36 12
c39 12 79 42 79 60 1 26 -104 286 -114 284 -6 -1 -96 -5 -201 -8z"/>
<path d="M10290 3340 c8 -5 26 -9 40 -9 23 0 23 1 5 9 -11 5 -29 9 -40 9 -17
1 -17 -1 -5 -9z"/>
<path d="M9480 2825 c-14 -8 -43 -14 -64 -15 -22 0 -37 -3 -34 -6 11 -10 110
-6 121 5 18 18 49 13 75 -11 l25 -23 -12 23 c-21 39 -69 51 -111 27z"/>
</g>
</svg>
